<svg width="24" height="24" viewBox="-30 -30 60 60" xmlns="http://www.w3.org/2000/svg">
<g stroke="currentColor" stroke-width="0.1" fill-opacity="0" fill="currentColor">
<ellipse cx="0" cy="-19" rx="3" ry="10" transform="rotate(30)"><animate attributeName="fill-opacity" begin="0s" dur="1.2s" values="1;0.1" repeatCount="indefinite"/></ellipse>
<ellipse cx="0" cy="-19" rx="3" ry="10" transform="rotate(60)"><animate attributeName="fill-opacity" begin="0.1s" dur="1.2s" values="1;0.1" repeatCount="indefinite"/></ellipse>
<ellipse cx="0" cy="-19" rx="3" ry="10" transform="rotate(90)"><animate attributeName="fill-opacity" begin="0.2s" dur="1.2s" values="1;0.1" repeatCount="indefinite"/></ellipse>
<ellipse cx="0" cy="-19" rx="3" ry="10" transform="rotate(120)"><animate attributeName="fill-opacity" begin="0.3s" dur="1.2s" values="1;0.1" repeatCount="indefinite"/></ellipse>
<ellipse cx="0" cy="-19" rx="3" ry="10" transform="rotate(150)"><animate attributeName="fill-opacity" begin="0.4s" dur="1.2s" values="1;0.1" repeatCount="indefinite"/></ellipse>
<ellipse cx="0" cy="-19" rx="3" ry="10" transform="rotate(180)"><animate attributeName="fill-opacity" begin="0.5s" dur="1.2s" values="1;0.1" repeatCount="indefinite"/></ellipse>
<ellipse cx="0" cy="-19" rx="3" ry="10" transform="rotate(210)"><animate attributeName="fill-opacity" begin="0.6s" dur="1.2s" values="1;0.1" repeatCount="indefinite"/></ellipse>
<ellipse cx="0" cy="-19" rx="3" ry="10" transform="rotate(240)"><animate attributeName="fill-opacity" begin="0.7s" dur="1.2s" values="1;0.1" repeatCount="indefinite"/></ellipse>
<ellipse cx="0" cy="-19" rx="3" ry="10" transform="rotate(270)"><animate attributeName="fill-opacity" begin="0.8s" dur="1.2s" values="1;0.1" repeatCount="indefinite"/></ellipse>
<ellipse cx="0" cy="-19" rx="3" ry="10" transform="rotate(300)"><animate attributeName="fill-opacity" begin="0.9s" dur="1.2s" values="1;0.1" repeatCount="indefinite"/></ellipse>
<ellipse cx="0" cy="-19" rx="3" ry="10" transform="rotate(330)"><animate attributeName="fill-opacity" begin="1s" dur="1.2s" values="1;0.1" repeatCount="indefinite"/></ellipse>
<ellipse cx="0" cy="-19" rx="3" ry="10"><animate attributeName="fill-opacity" begin="1.1s" dur="1.2s" values="1;0.1" repeatCount="indefinite"/></ellipse>
</g>
</svg>