<svg xmlns="http://www.w3.org/2000/svg" viewBox="0 0 64 64" width="64" height="64"><path d="M34.24 7.282a24.378 24.378 0 0 0-9.68.82C14.517 11.047 7.13 20.284 7 31.241H.432c-.365 0-.56.456-.338.755l9.927 13.51c.17.222.508.222.665 0l9.927-13.497c.222-.312.026-.755-.339-.755h-6.553c.117-7.205 4.56-13.354 10.84-16a17.45 17.45 0 0 1 7.739-1.367c3.778.195 7.256 1.615 10.07 3.856a3.362 3.362 0 0 0 4.821-.638c1.081-1.472.782-3.53-.651-4.664-3.466-2.775-7.687-4.625-12.3-5.16zM21.63 46.288c2.8 2.254 6.292 3.674 10.07 3.857 2.762.143 5.381-.378 7.74-1.368 6.279-2.645 10.735-8.794 10.839-15.999h-6.553c-.365 0-.56-.456-.34-.756l9.928-13.51c.17-.222.509-.222.665 0l9.927 13.497c.222.313.027.756-.338.756H57c-.117 10.957-7.504 20.207-17.562 23.138a24.618 24.618 0 0 1-9.68.821c-4.612-.521-8.833-2.371-12.299-5.146-1.433-1.147-1.732-3.192-.651-4.664a3.371 3.371 0 0 1 4.82-.626z" fill="#444"/></svg>