<svg xmlns="http://www.w3.org/2000/svg" viewBox="0 0 64 64" width="64" height="64">
  <path fill="#fff" d="M8.7 26.3h46.7v29.2H8.7z"/>
  <path fill="#666" d="M46.6 8.8h11.7c1.6 0 2.9 1.3 2.9 2.9v46.7c0 1.6-1.3 2.9-2.9 2.9H5.8c-1.6 0-2.9-1.3-2.9-2.9V11.7c0-1.6 1.3-2.9 2.9-2.9h11.7V2.9h5.8v5.8h17.5V2.9h5.8v5.9zM8.7 26.3v29.2h46.7V26.3H8.7z" />
  <path fill="#888" d="M14.5 43.1h5.8v5.8h-5.8zM29.1 43.1h5.8v5.8h-5.8z"/>
  <path fill="#888" d="M29.1 32.1h5.8v5.8h-5.8zM43.7 32.1h5.8v5.8h-5.8zM14.5 32.1h5.8v5.8h-5.8z"/>
</svg>