<svg xmlns="http://www.w3.org/2000/svg" height="64" viewBox="0 0 64 64" width="64"><path d="M56.006 26.176c-.662-.663-1.467-.995-2.415-.995H38.818V10.41c0-.947-.331-1.752-.995-2.416C37.161 7.331 36.356 7 35.41 7h-6.817c-.947 0-1.752.332-2.414.994-.663.663-.995 1.468-.995 2.416V25.18H10.409c-.947 0-1.752.333-2.415.995C7.33 26.84 7 27.644 7 28.59v6.82c0 .946.331 1.75.994 2.414.663.662 1.467.994 2.415.994h14.773V53.59c0 .947.331 1.753.994 2.416.663.662 1.467.994 2.415.994h6.818c.948 0 1.752-.332 2.415-.994.663-.664.994-1.468.994-2.416V38.818h14.773c.948 0 1.753-.332 2.415-.994.663-.663.994-1.468.994-2.414v-6.82c0-.946-.33-1.751-.994-2.414z" fill="#4caf50"/></svg>