<svg xmlns="http://www.w3.org/2000/svg" viewBox="0 0 64 64" width="64" height="64">
  <path fill="#fff" d="M12.2 9.3h39.7v45.3H12.2z" id="Calque_3"/>
  <path fill="#666" d="M54.7 3.7H9.3C7.7 3.7 6.5 5 6.5 6.5v51c0 1.6 1.3 2.8 2.8 2.8h45.3c1.6 0 2.8-1.3 2.8-2.8v-51c.1-1.6-1.2-2.8-2.7-2.8zm-2.9 51H12.2V9.3h39.7v45.4z"/>
  <path fill="#666" d="M20.5 42h15v6h-15zM20.5 29h23v6h-23zM20.5 16h23v6h-23z"/>
  <g transform="matrix(4 0 0 4 256 0)">
      <circle fill="#4caf50" cx="-52" cy="4" r="4" />
      <path fill="#fff" d="M-49.2 3.3c-.1-.1-.2-.1-.3-.1h-1.8V1.4c0-.1 0-.2-.1-.3 0-.1-.1-.1-.2-.1h-.8c-.1 0-.2 0-.3.1s-.1.2-.1.3v1.8h-1.8c-.1 0-.2 0-.3.1s-.1.2-.1.3v.8c0 .1 0 .2.1.3.1.1.2.1.3.1h1.8v1.8c0 .1 0 .2.1.3.1.1.2.1.3.1h.8c.1 0 .2 0 .3-.1s.1-.2.1-.3V4.8h1.8c.1 0 .2 0 .3-.1s.1-.2.1-.3v-.8c0-.1-.1-.2-.2-.3z"/>
  </g>
</svg>
