<svg xmlns="http://www.w3.org/2000/svg" viewBox="0 0 64 64" width="64" height="64">
  <circle cx="32" cy="33" r="30" fill="none"/>
  <path fill="#666" d="M14.5 57.4c4.9 3.5 11 5.6 17.5 5.6s12.6-2.1 17.5-5.6v-5.3h-35v5.3z"/>
  <path fill="#666" d="M49.5 56.4h-35V52c0-6 4.9-10.9 10.9-10.9h13.1c6 0 10.9 4.9 10.9 10.9l.1 4.4zM32 36.8c-7.2 0-13.1-5.9-13.1-13.1S24.8 10.5 32 10.5s13.1 5.9 13.1 13.1S39.2 36.8 32 36.8z"/>
  <g transform="matrix(4 0 0 4 256 0)">
    <circle cx="-52" cy="4" r="4" fill="#4caf50"/>
    <path d="M-49.2 3.3c-.1-.1-.2-.1-.3-.1h-1.8V1.4c0-.1 0-.2-.1-.3 0-.1-.1-.1-.2-.1h-.8c-.1 0-.2 0-.3.1-.1.1-.1.2-.1.3v1.8h-1.8c-.1 0-.2 0-.3.1-.1.1-.1.2-.1.3v.8c0 .1 0 .2.1.3.1.1.2.1.3.1h1.8v1.8c0 .1 0 .2.1.3.1.1.2.1.3.1h.8c.1 0 .2 0 .3-.1.1-.1.1-.2.1-.3V4.8h1.8c.1 0 .2 0 .3-.1.1-.1.1-.2.1-.3v-.8c0-.1-.1-.2-.2-.3z" fill="#fff"/>
  </g>
</svg>
