<svg xmlns="http://www.w3.org/2000/svg" viewBox="0 0 64 64" width="64" height="64">
  <path d="M32 6.7c-12.6 0-22.7 5-22.7 11.4v25.3c0 6.2 10.1 11.4 22.7 11.4s22.7-5.1 22.7-11.4V18c0-6.3-10.1-11.3-22.7-11.3z" fill="#fff8f8"/>
  <path d="M13.3 32c0 .8 1.2 2.3 4.1 3.7 3.7 1.8 8.9 3 14.6 3s10.9-1.1 14.6-3c2.9-1.4 4.1-2.9 4.1-3.7v-5.8c-4.4 2.7-11.1 4.5-18.7 4.5S17.7 29 13.3 26.2V32zm37.4 7.5C46.3 42.3 39.5 44 32 44s-14.3-1.7-18.7-4.5v5.8c0 .8 1.2 2.3 4.1 3.7 3.7 1.8 8.9 3 14.6 3s10.9-1.1 14.6-3c2.9-1.4 4.1-2.9 4.1-3.7v-5.8zM8 45.3V18.7c0-6.6 10.7-12 24-12s24 5.4 24 12v26.7c0 6.6-10.7 12-24 12S8 52 8 45.3zm24-20c5.7 0 10.9-1.1 14.6-3 2.9-1.4 4.1-2.9 4.1-3.7s-1.2-2.3-4.1-3.7c-3.7-1.8-8.9-3-14.6-3s-10.9 1.1-14.6 3c-2.9 1.4-4.1 2.9-4.1 3.7s1.2 2.3 4.1 3.7c3.7 1.9 8.9 3 14.6 3z" fill="#666"/>
</svg>
