<svg
	height="64"
	width="64"
	viewBox="0 0 512 512"
	xmlns="http://www.w3.org/2000/svg">
	<path
		d="m484.408 30h27.592v-30h-256-256v30h27.592c39.126 21.112 63.408 60.969 63.408 105 0 9.152-1.198 18.192-3.226 27.015l-82.379 82.38 21.211 21.211 82.379-82.379c8.823-2.029 17.863-3.227 27.015-3.227 44.031 0 83.888 24.282 105 63.408v87.592h15 15v-87.592c21.112-39.126 60.969-63.408 105-63.408 9.152 0 18.192 1.198 27.015 3.226l82.379 82.379 21.211-21.211-82.379-82.379c-2.028-8.823-3.226-17.863-3.226-27.015 0-44.031 24.282-83.888 63.408-105zm-93.002 99.196-39.745-39.745c5.101-21.101 13.652-41.03 25.527-59.461h57.642c-26.235 26.233-41.944 61.27-43.424 99.206zm-171.617-99.196-35.121 35.121c-3.977-12.109-9.001-23.828-15.018-35.121zm-99.195 99.196c-1.48-37.936-17.189-72.973-43.424-99.196h57.642c11.874 18.42 20.425 38.35 25.527 59.451zm120.406 64.511c-26.21-26.197-61.247-41.871-99.137-43.359l39.686-39.686c21.101 5.101 41.03 13.652 59.451 25.527zm0-92.411c-11.294-6.019-23.042-10.957-35.151-14.934l35.151-35.151zm101.351-71.296c-6.017 11.294-11.041 23.013-15.018 35.121l-35.122-35.121zm-71.351 21.211 35.151 35.151c-12.109 3.977-23.857 8.915-35.151 14.934zm0 142.498v-57.521c18.42-11.874 38.35-20.425 59.451-25.527l39.686 39.686c-37.89 1.49-72.929 17.165-99.137 43.362z"
		fill="#e6d9cf"/>
	<path
		d="m271 243.408c21.112-39.126 60.969-63.408 105-63.408 9.152 0 18.192 1.198 27.015 3.226l82.379 82.379 21.211-21.211-82.379-82.379c-2.028-8.823-3.226-17.863-3.226-27.015 0-44.031 24.282-83.888 63.408-105h27.592v-30h-256v331h15zm106.188-213.418h57.642c-26.235 26.233-41.944 61.27-43.423 99.206l-39.745-39.745c5.101-21.101 13.652-41.031 25.526-59.461zm-34.837.01c-6.017 11.294-11.041 23.013-15.018 35.121l-35.122-35.121zm-71.351 21.211 35.151 35.151c-12.109 3.977-23.857 8.915-35.151 14.934zm0 84.977c18.42-11.874 38.35-20.425 59.451-25.527l39.686 39.686c-37.89 1.489-72.929 17.164-99.137 43.361z"
		fill="#e6d9cf"/>
	<path d="m211.527 361h-54.799l-40.855-81.709 26.836-13.418 32.563 65.127h36.255z" fill="#2e4772"/>
	<path d="m211.527 421h-81.738l-75-75 21.211-21.211 66.211 66.211h69.316z" fill="#2e4772"/>
	<path d="m142.035 512-21.211-21.211 38.965-39.789h73.711v30h-61.289z" fill="#2e4772"/>
	<path d="m355.272 361h-54.799v-30h36.255l32.563-65.127 26.836 13.418z" fill="#2e4772"/>
	<path d="m382.211 421h-81.738v-30h69.316l66.211-66.211 21.211 21.211z" fill="#2e4772"/>
	<path d="m369.818 512-30.029-31h-61.289v-30h73.711l38.818 39.789z" fill="#2e4772"/>
	<path d="m256 301c-41.4 0-75 33.6-75 75s33.6 75 75 75 75-33.6 75-75-33.6-75-75-75z" fill="#96a0ff"/>
	<path d="m331 376c0 41.4-33.6 75-75 75v-150c41.4 0 75 33.6 75 75z" fill="#96a0ff"/>
	<path d="m256 421c-24.901 0-45 20.099-45 45 0 24.899 20.099 46 45 46s45-21.101 45-46c0-24.901-20.099-45-45-45z"
				fill="#2e4772"/>
	<path d="m301 466c0 24.899-20.099 46-45 46v-91c24.901 0 45 20.099 45 45z" fill="#2e4772"/>
</svg>