<svg xmlns="http://www.w3.org/2000/svg" viewBox="0 0 64 64" width="64" height="64">
  <circle fill="#fff" cx="49.8" cy="48.3" r="5.6"/>
  <circle fill="#fff" cx="32" cy="19.1" r="12"/>
  <path fill="#fff" d="M53 57.8c-.2-11.4-9.5-20.6-20.8-20.6s-20.6 9.2-20.8 20.6H53z"/>
  <path fill="#1d83d4" d="M39.7 50.3c-.4-1.5-.4-3.1 0-4.6l-2.8-1.6 2.8-4.9 2.8 1.6c1.1-1.1 2.5-1.9 4-2.3v-3.3h5.7v3.3c1.5.5 2.9 1.3 4 2.3l2.8-1.6 2.8 4.9-2.8 1.6c.4 1.5.4 3.1 0 4.6l2.8 1.6-2.8 5-2.8-1.6c-1.1 1.1-2.5 1.9-4 2.3v3.3h-5.7v-3.3c-1.5-.4-2.9-1.2-4-2.3l-2.8 1.6-2.8-4.9 2.8-1.7zm9.7 2c2.4.1 4.3-1.8 4.4-4.1.1-2.4-1.8-4.3-4.1-4.4h-.3c-2.4.1-4.2 2.1-4.1 4.4 0 2.2 1.8 4 4.1 4.1z"/>
  <path fill="#666" d="M32 37.2v5.2c-8.6 0-15.5 6.9-15.5 15.5h-5.2c0-11.5 9.3-20.7 20.7-20.7zm0-2.6c-8.6 0-15.5-6.9-15.5-15.5S23.4 3.6 32 3.6s15.5 6.9 15.5 15.5S40.6 34.6 32 34.6zm0-5.2c5.7 0 10.3-4.6 10.3-10.3S37.7 8.8 32 8.8s-10.3 4.6-10.3 10.3S26.3 29.4 32 29.4z"/>
</svg>