<svg xmlns="http://www.w3.org/2000/svg" viewBox="0 0 64 64" width="64" height="64">
  <path fill="#fff" d="M7 8h51v45H7V8z"/>
  <circle fill="#666" cx="20" cy="21" r="5"/>
  <path fill="#666" d="M26.5 38.5l12-12h4.3L37.5 21c-1-1.1-2.8-1.1-3.9 0L8 46V8h44v18.5h3.5L58 29V4c0-1.6-.5-2-2-2H4c-1.6 0-2 .5-2 2v47c0 1.6.5 2 2 2h22.5V38.5z"/>
  <path fill="#df454f" d="M53.2 32H40.8L32 40.8v12.4l8.8 8.8h12.4l8.8-8.8V40.8L53.2 32z" />
  <path fill="#fff" d="M54.5 51.6c0-.3-.1-.6-.4-.9L50.5 47l3.7-3.7c.2-.2.4-.5.4-.9 0-.3-.1-.6-.4-.9l-1.7-1.7c-.2-.2-.5-.4-.9-.4s-.6.1-.9.4L47 43.6l-3.7-3.7c-.2-.2-.5-.4-.9-.4s-.6.1-.9.4l-1.7 1.7c-.2.2-.4.5-.4.9 0 .3.1.6.4.9l3.7 3.7-3.7 3.7c-.2.2-.4.5-.4.9 0 .3.1.6.4.9l1.7 1.7c.2.2.5.4.9.4.3 0 .6-.1.9-.4l3.7-3.7 3.7 3.7c.2.2.5.4.9.4.3 0 .6-.1.9-.4l1.7-1.7c.2-.4.3-.7.3-1z"/>
</svg>
