<svg xmlns="http://www.w3.org/2000/svg" width="64" height="64" viewBox="0 0 179.5 179.5"><g stroke-width=".599"><path fill="#324a5e" d="M42.041 173.494L6.006 137.46l132.73-132.73a16.01 16.01 0 0 1 22.721 0l13.313 13.314a16.01 16.01 0 0 1 0 22.722z"/><path fill="#fc6f58" d="M174.77 40.765a16.01 16.01 0 0 0 0-22.722L161.457 4.73a16.01 16.01 0 0 0-22.722 0l-9.91 9.91 36.036 36.034z"/><path fill="#f1543f" d="M174.77 18.043l-7.107-7.107-21.32 21.32 18.518 18.519 9.91-9.91c6.306-6.406 6.306-16.616 0-22.822z"/><path fill="#2b3b4e" d="M23.298 154.826L146.1 32.024l18.615 18.615L41.913 173.441z"/><path fill="#ffdc8d" d="M6.006 137.459l36.035 36.035L0 179.5z"/><path fill="#ffd15d" d="M24.023 155.477L0 179.5l42.041-6.006z"/><path fill="#324a5e" d="M0 179.5l16.216-2.302-13.914-13.914z"/><path fill="#2b3b4e" d="M16.216 177.198l-6.907-7.007L0 179.5z"/></g></svg>