<svg viewBox="0 0 512 512" xmlns="http://www.w3.org/2000/svg" width="512" height="512">
	<path fill="#DF454F" d="M361.602 0H150.398L0 150.398v211.204L150.398 512h211.204L512 361.602V150.398zm0 0" />
	<path fill="#fff" d="M383.936 334.271c0-5.654-2.021-10.5-6.058-14.537l-62.988-62.988 62.99-62.99c4.036-4.037 6.055-8.883 6.056-14.535-.001-5.651-2.017-10.495-6.06-14.537l-29.068-29.069c-4.037-4.037-8.882-6.057-14.535-6.057-5.653 0-10.499 2.02-14.535 6.057l-62.99 62.99-62.988-62.988c-4.036-4.037-8.882-6.057-14.535-6.057s-10.495 2.018-14.534 6.057l-29.073 29.072c-4.04 4.04-6.058 8.882-6.055 14.533-.002 5.654 2.02 10.499 6.056 14.535l62.988 62.988-62.991 62.99c-4.037 4.037-6.06 8.885-6.058 14.538.002 5.65 2.023 10.494 6.06 14.531l29.07 29.07c4.04 4.04 8.882 6.06 14.534 6.062 5.654 0 10.5-2.021 14.536-6.058l62.991-62.99 62.988 62.987c4.04 4.04 8.883 6.06 14.537 6.058 5.65.002 10.493-2.015 14.533-6.055l29.073-29.072c4.037-4.04 6.06-8.882 6.056-14.535z"/>
</svg>