<svg xmlns="http://www.w3.org/2000/svg" width="40" height="40" viewBox="0 0 40 40"><path d="M8.004 5.002a2.993 2.993 0 0 0-3 3v7.993h7.024a4.017 4.017 0 0 1 3.719 2.524l.51 1.262 2.2-14.78zm18.808 0l4.39 10.996h3.795v-8a2.993 2.993 0 0 0-2.997-3zm-2.54 15.217L22.07 34.995H32a2.99 2.99 0 0 0 2.997-2.997v-8.003H28.5a4.01 4.01 0 0 1-3.719-2.51zM5 24v8a2.993 2.993 0 0 0 3.004 2.996h5.714l-4.4-10.997z" class="background" fill="#e6e6e6"/><path d="M22.337 3.006a2.003 2.003 0 0 0-1.817 1.7L17.14 27.385l-3.257-8.124a2.003 2.003 0 0 0-1.86-1.263H2.004a2.003 2.003 0 0 0-2.003 2 2.003 2.003 0 0 0 2.003 2.002h8.672l5.499 13.74a2.003 2.003 0 0 0 3.828-.453l3.382-22.692 3.261 8.147a2.003 2.003 0 0 0 1.852 1.255h9.5a2.003 2.003 0 0 0 2.003-2 2.003 2.003 0 0 0-2.003-2.002h-8.14L24.36 4.264a2.003 2.003 0 0 0-2.022-1.258z" class="foreground" fill="#666"/></svg>