<svg xmlns="http://www.w3.org/2000/svg" height="40" viewBox="0 0 40 40" width="40"><path d="M8 5C6.338 5 5 6.338 5 8v24c0 1.662 1.338 3 3 3h24c1.662 0 3-1.338 3-3V16.694c-.041-.022-.091-.043-.135-.063a2.305 2.305 0 0 1-.709-.473l-.008-.013-2.62-2.555c-.304.193-.584.353-.923.621L20.447 26.242A4.71 4.71 0 0 1 16.904 28c-2.665.078-4.825-2.12-4.9-4.71-.037-1.264.377-2.59 1.261-3.528l11.227-11.76.074-.066s.625-.654.606-1.315c-.013-.44-.053-.569-.213-.715-.16-.146-.793-.542-2.658-.488A2.5 2.5 0 0 1 20.855 5zm20.908 0c.169.554.246 1.087.258 1.504.073 2.488-1.489 4.013-1.846 4.332L16.174 22.508c-.122.13-.184.2-.17.664.015.518.34.84.783.826a.823.823 0 0 0 .545-.265l.015-.014 10.497-12.432.148-.119a14.371 14.371 0 0 1 2.326-1.557c.717-.378 1.155-.678 2.192-.709l2-.058.06 2.133.43.418V9.289l-.158.004-.051-1.86-2.555-2.41C32.156 5.018 32.081 5 32 5z" class="background" fill="#e6e6e6"/><path d="M39.87 9.476L37.65 7.38c-.089-.084-.264-.165-.35-.162l-.519.015-.015-.518c-.005-.173-.094-.257-.182-.34L32.14 2.182c-.889-.838-2.4-2.263-5.249-2.18-2.935.086-4.19 1.505-5.112 2.483a.532.532 0 0 0-.069.607c.092.17.27.337.529.33 4.316-.126 4.89 1.758 4.93 3.14.05 1.726-1.298 2.89-1.298 2.89L14.718 21.134c-.503.534-.742 1.232-.716 2.095.045 1.554 1.291 2.814 2.845 2.769a2.76 2.76 0 0 0 2.045-1.01L29.25 12.724c1.435-1.166 2.799-1.81 3.317-1.825l.022.777c.005.172.094.256.183.34L35.53 14.7c.09.083.264.165.35.162.173-.005.257-.094.341-.183l3.587-4.425c.251-.266.241-.612.063-.78z" class="foreground" fill="#666"/></svg>