<svg xmlns="http://www.w3.org/2000/svg" width="16" height="16" viewBox="0 0 4.2333307 4.2333307"><g transform="rotate(45 2.126 2.114) scale(.01056)" stroke-width="3.99"><circle cx="201" cy="201" r="200.5" fill="#444"/><path fill="#fff" d="M307.333 271.38c0-4.9-1.752-9.1-5.25-12.598l-58.136-58.136 58.136-58.137c3.498-3.498 5.248-7.699 5.25-12.597-.002-4.898-1.75-9.096-5.253-12.599l-18.095-18.095c-3.499-3.499-7.698-5.25-12.597-5.25-4.9 0-9.1 1.751-12.597 5.25l-58.137 58.136-58.14-58.14c-3.499-3.499-7.698-5.25-12.598-5.25s-9.096 1.749-12.596 5.25L99.222 117.31c-3.501 3.501-5.25 7.698-5.248 12.595-.001 4.9 1.75 9.099 5.248 12.597l58.141 58.14-58.145 58.146c-3.498 3.498-5.251 7.7-5.25 12.598.002 4.898 1.753 9.096 5.252 12.594l18.097 18.098c3.501 3.5 7.698 5.25 12.596 5.253 4.9 0 8.894-1.971 12.598-5.25l58.145-58.145 58.135 58.135c3.502 3.501 7.7 5.252 12.599 5.25 4.897.002 9.094-1.746 12.596-5.247l18.098-18.098c3.5-3.501 5.251-7.698 5.249-12.597z"/></g></svg>