<svg xmlns="http://www.w3.org/2000/svg" viewBox="0 0 64 64" width="64" height="64">
  <path fill="#fff" d="M13.3 10.7H24V16H13.3zM40 26.7h10.7V32H40zM40 48h10.7v5.3H40z"/>
  <path fill="#666" d="M26.7 5.3c1.5 0 2.7 1.2 2.7 2.7v10.7c0 1.5-1.2 2.7-2.7 2.7h-5.3v5.3h13.3V24c0-1.5 1.2-2.7 2.7-2.7h16c1.5 0 2.7 1.2 2.7 2.7v10.7c0 1.5-1.2 2.7-2.7 2.7h-16c-1.5 0-2.7-1.2-2.7-2.7V32H21.3v16h13.3v-2.7c0-1.5 1.2-2.7 2.7-2.7h16c1.5 0 2.7 1.2 2.7 2.7V56c0 1.5-1.2 2.7-2.7 2.7h-16c-1.5 0-2.7-1.2-2.7-2.7v-2.7h-16c-1.5 0-2.7-1.2-2.7-2.7V21.3h-5.3c-1.5 0-2.7-1.2-2.7-2.7V8c0-1.5 1.2-2.7 2.7-2.7h16.1zm24 42.7H40v5.3h10.7V48zm0-21.3H40V32h10.7v-5.3zM24 10.7H13.3V16H24v-5.3z" />
</svg>
