<svg xmlns="http://www.w3.org/2000/svg" viewBox="0 0 64 64">
  <path fill="#666" d="M60.8 43.1c.9-1.1 1.4-2.5 1.4-4.1 0-3.4-3-6.3-6.5-6.2h-.6l5.7 10.3zM18.7 54.7c0-3.4 2.8-6.5 6.2-6.5 2 0 3.8.9 5 2.3l11.7-21.1c1.2-2.1 3.4-3.4 5.8-3.4.4 0 .8 0 1.2.1l.1-8.3c0-1.1-.9-2-2-2l-17.2-.2v-1.3c0-.8.3-1.4.8-2 1.1-1.1 1.6-2.5 1.7-4.1 0-3.5-2.8-6.4-6.4-6.4-3.5 0-6.4 3-6.2 6.5 0 1.5.6 3 1.6 4 .5.6.7 1.2.7 1.9v1.3l-17.5-.2c-1.1 0-2 .9-2 2l-.3 17.3h1.3c.7 0 1.4-.3 2-.8l.2-.2c.1-.1.2-.1.2-.2.1-.1.2-.1.2-.2.1-.1.2-.1.2-.2.1-.1.2-.1.2-.2l.2-.2.2-.1.2-.1c.1 0 .2-.1.2-.1.1 0 .2-.1.2-.1.1 0 .2-.1.3-.1.5.3.5.3.6.3.1-.1.2-.1.3-.1h2c.1 0 .2.1.2.1.1 0 .2.1.3.1.1 0 .2.1.2.1l.4.2c.1.1.2.1.2.1.2.1.3.2.5.2h.1c1.3.7 2.3 1.8 2.8 3.1.1.2.2.4.2.6v.1c.1.2.2.3.2.5v.2c0 .2.1.2.1.4V39.9c0 .1-.1.2-.1.3-.1.1-.1.2-.1.2-.1.1-.2.2-.2.3s-.1.2-.1.2c-.1.1-.1.2-.2.3 0 .1-.1.2-.1.2s.3.5.2.6c-.1.1-.1.2-.2.2-.1.1-.2.2-.2.3-.1 0-.1.1-.2.2-.1.2-.2.2-.2.3-.1 0-.1.1-.2.2l-.2.2-.2.2c-.1.1-.2.2-.3.2 0 .1-.1.1-.2.2s-.2.2-.3.2c-.1 0-.2.1-.2.1-.1.1-.2.1-.3.2-.1 0-.2.1-.2.1l-.4.2c-.1 0-.2.1-.2.1-.2 0-.2.1-.4.1-.1.1-.2.1-.2.1-.4-.1-.5-.1-.7-.1h-.8c-1.6 0-3-.7-4.1-1.7-.6-.5-1.3-.8-2-.8H2l-.2 17.2c0 1.1.9 2 2 2l17.1.2v-1.3c0-.7-.2-1.4-.7-1.9-.9-1.1-1.5-2.5-1.5-4z"/>
  <path fill="#fdbf00" d="M62.3 56.3L51.4 36.6c-.8-1.4-2.3-2.3-4-2.3-1.6 0-3.1.9-4 2.3L32.6 56.3c-.8 1.4-.8 3.1 0 4.5s2.3 2.2 3.9 2.2h21.8c1.6 0 3.1-.8 3.9-2.2.4-.7.6-1.5.6-2.2.1-.8-.1-1.6-.5-2.3z" />
  <path fill="#5a5a5a" d="M44.7 40.2v13.6h5.4V40.2h-5.4zm2.7 15.4c-1.5 0-2.7 1.2-2.7 2.7s1.2 2.7 2.7 2.7c1.5 0 2.7-1.2 2.7-2.7s-1.2-2.7-2.7-2.7z" />
</svg>