<svg xmlns="http://www.w3.org/2000/svg" viewBox="0 0 64 64" width="64" height="64">
  <path fill="#1d83d4" d="M26.2 40.3h11.6v8.4H26.2zM26.3 15.4h11.6v8.4H26.3z"/>
  <path fill="#fff" d="M7.7 12.6h16.5v38.9H7.7zM39.9 12.6h16.2v38.9H39.9z"/>
  <path fill="#666" d="M10.1 34.8h11.8v5.6H10.1z"/>
  <path fill="#666" d="M3 9.8v44.4C3 55.8 4.1 57 5.4 57H29v-5.6h-.1V23.7h.1v-5.6h-.1V9.8c0-1.5-1.1-2.8-2.4-2.8H5.4C4.1 7 3 8.2 3 9.8zm4.7 2.8h16.5v38.9H7.7V12.6z"/>
  <path fill="#666" d="M10.1 26.4h11.8V32H10.1zM10.1 43.1h11.8v5.6H10.1z"/>
  <path fill="#666" d="M42.3 34.8h11.6v5.6H42.3z"/>
  <path fill="#666" d="M58.4 7H37.6c-1.3 0-2.3 1.2-2.3 2.8v8.3h-.1v5.6h.1v27.8h-.1V57h23.2c1.3 0 2.3-1.2 2.3-2.8V9.8c0-1.6-1-2.8-2.3-2.8zm-2.3 44.4H39.9V12.6h16.2v38.8z"/>
  <path fill="#666" d="M42.3 26.4h11.6V32H42.3zM42.3 43.1h11.6v5.6H42.3z"/>
</svg>
