<svg xmlns="http://www.w3.org/2000/svg" viewBox="0 0 64 64" width="64" height="64">
  <path fill="#f78422" d="M11.7 6h40.6c3.1 0 5.6 2.5 5.6 5.7v40.6c0 3.1-2.5 5.7-5.7 5.7H11.7C8.5 58 6 55.4 6 52.2V11.7C6 8.5 8.5 6 11.7 6z" />
  <path fill="#fff" d="M39.8 24.2c-7.1-7.1-16.4-10.9-26.4-10.9v7.4c8 0 15.5 3.1 21.2 8.8 5.6 5.6 8.8 13.2 8.8 21.2h7.4c-.1-10.1-3.9-19.6-11-26.5z"/>
  <path fill="#fff" d="M13.4 25.6V33C23.1 33 31 40.9 31 50.6h7.4c-.2-13.8-11.3-25-25-25z"/>
  <circle fill="#fff" cx="18.6" cy="45.5" r="5.3"/>
</svg>