<svg xmlns="http://www.w3.org/2000/svg" viewBox="0 0 64 64" width="64" height="64">
	<path fill="#a37800" d="M3.7 9.3c0-1.6 1.3-2.8 2.8-2.8h51c1.6 0 2.8 1.3 2.8 2.8v45.3c0 1.6-1.3 2.8-2.8 2.8h-21l-11.1-11-21.7.1"/>
	<path fill="#fff" d="M13.1 13.6c0-1.2.9-2.1 2.1-2.1h38c1.2 0 2.1.9 2.1 2.1v33.8c0 1.2-.9 2.1-2.1 2.1H37.6l-8.3-8.3-16.2.1"/>
	<path fill="#ebba16" d="M60.3 54.7c0 1.6-1.3 2.8-2.8 2.8h-51c-1.6 0-2.8-1.3-2.8-2.8V9.3c0-1.6 1.3-2.8 2.8-2.8h9.7l8.3 11.2 35.9-.2"/>
	<g transform="matrix(4 0 0 4 256 0)">
		<circle cx="-52" cy="4" r="4" fill="#4caf50"/>
		<path fill="#fff" d="M-49.2 3.3c-.1-.1-.2-.1-.3-.1h-1.8V1.4c0-.1 0-.2-.1-.3 0-.1-.1-.1-.2-.1h-.8c-.1 0-.2 0-.3.1-.1.1-.1.2-.1.3v1.8h-1.8c-.1 0-.2 0-.3.1-.1.1-.1.2-.1.3v.8c0 .1 0 .2.1.3.1.1.2.1.3.1h1.8v1.8c0 .1 0 .2.1.3.1.1.2.1.3.1h.8c.1 0 .2 0 .3-.1.1-.1.1-.2.1-.3V4.8h1.8c.1 0 .2 0 .3-.1.1-.1.1-.2.1-.3v-.8c0-.1-.1-.2-.2-.3z"/>
	</g>
</svg>