<svg xmlns="http://www.w3.org/2000/svg" viewBox="0 0 64 64" width="64" height="64">
  <path d="M3.7 9.3c0-1.6 1.3-2.8 2.8-2.8h51c1.6 0 2.8 1.3 2.8 2.8v45.3c0 1.6-1.3 2.8-2.8 2.8h-21l-11.1-11-21.7.1" fill="#a37800"/>
  <path d="M60.3 54.7c0 1.6-1.3 2.8-2.8 2.8h-51c-1.6 0-2.8-1.3-2.8-2.8V9.3c0-1.6 1.3-2.8 2.8-2.8h21l11.1 11.1 21.7-.1" fill="#ebba16"/>
  <path d="M30.8 50.8c0 .7-.6 1.3-1.3 1.3H10.7c-.7 0-1.3-.6-1.3-1.3V38.7h-4l13.9-12.6c.5-.5 1.3-.5 1.8 0L35 38.7h-4v12.1zm-12.1-9.4v8.1h2.7v-8.1h-2.7z" fill="#fff"/>
</svg>