<svg xmlns="http://www.w3.org/2000/svg" viewBox="0 0 64 64" width="64" height="64">
  <path d="M47.5 30.7h.2c.3 0 .5.1.9.2.1 0 .2.1.3.1h.1c.1.1.2.1.3.2.3.2.5.4.8.8.1.2.2.3.3.5 3.6 7.8 6.7 15.8 10.2 23.6.2.5.3 1.1.2 1.7-.1 1.2-.9 2.3-2.1 2.7-.3.1-.6.2-1 .2s-.8 0-1.2-.1-.8-.3-1.1-.5c-.4-.3-.8-.8-1-1.2-.8-1.6-1.5-3.1-2.2-4.9h-9.8c-.6 1.6-1.3 3.1-2.1 4.7-.2.5-.5 1-1.1 1.3-.3.2-.5.3-.9.4-1.1.3-2.4.1-3.2-.6-.3-.2-.5-.5-.8-1-.2-.3-.3-.8-.3-1.1-.1-.5 0-1 .2-1.6 3.1-8 6.7-15.8 10.2-23.7.1-.2.2-.4.3-.5.2-.3.4-.5.8-.8.1-.1.2-.1.3-.2 0 0 .1 0 .1-.1.1 0 .2-.1.2-.1.2-.1.5-.2.9-.2.3.2.4.2.5.2zm.1 12c-.6 1.6-1.3 3.1-2.1 4.8h3.9c-.5-1.6-1-3.3-1.8-4.8z" fill="#d86600"/>
  <path d="M13.9 8.1c.3-1.8.6-3.2.9-4.2C15.2 2.6 16 2 17.2 2c.6 0 1.1.1 1.5.3.9.4 1.4 1 1.4 1.9 0 .2 0 .6-.1.9-.1.5-.3 1.3-.5 2.4 2.2-.3 4.3-.8 6.3-1.3.3-.2.7-.2 1-.2 1.1 0 1.9.6 2.2 1.7.1.3.2.7.2 1 0 1.2-.7 2-2.2 2.4-1.9.5-4.7 1-8.4 1.5-.2 1.2-.3 2.8-.5 4.5 1.8-.5 3.7-.8 5.7-1 .1-.2.1-.4.2-.6.2-.7.4-1.1.6-1.4.4-.4.9-.6 1.6-.6 1.9 0 2.9.8 2.9 2.3 0 .2 0 .5-.1.8 2.3.6 4.2 1.5 5.6 2.8 2.4 2 3.6 4.6 3.6 7.8 0 4.7-2.2 8.3-6.7 10.6-1.3.7-2.8 1.2-4.3 1.6-.7.2-1.2.3-1.6.3-1.3 0-1.9-.7-1.9-2 0-.8.6-1.5 1.7-1.9 2.5-.9 4.2-2 5.3-3.2 1.2-1.4 1.9-3.3 1.9-5.5 0-3.4-1.7-5.6-5-6.7-2.5 5.3-5.4 9.2-8.8 11.9v.2c.2.9.4 1.5.5 1.8.2.5.2 1 .2 1.5 0 1.1-.5 1.9-1.5 2.3-.5.2-.9.3-1.3.3-1.1 0-1.8-.6-2.2-1.7-.1-.5-.2-.8-.3-.9-2.4 1.4-4.4 2.1-5.9 2.1s-2.7-.7-3.6-2c-.7-1.1-1.1-2.6-1.1-4.5 0-4.6 3.1-8.7 9.3-12.2.1-1.5.2-3.6.4-6.1-2.2.1-3.7.2-4.5.2s-1.4-.2-1.8-.5c-.6-.5-.9-1.1-.9-1.9 0-1 .4-1.8 1.3-2.2.4-.2.8-.3 1.3-.3h.4c1.2-.1 2.8-.1 4.8-.3zm-1.1 16.3c-2.8 2.2-4.2 4.3-4.2 6.4 0 1.2.3 1.9 1 1.9.8 0 2-.6 3.7-1.7-.4-2.3-.5-4.5-.5-6.6zm9.5-4.1c-1.4.2-2.9.6-4.4 1.2V23c0 1.1 0 2.4.1 3.9 1.7-2 3.1-4.2 4.3-6.6z" fill="#1d83d4"/>
  <path d="M8.3 47.6v4.3c0 2.2 1.7 4.1 3.9 4.3H19v4.3h-6.4c-4.8 0-8.6-3.9-8.6-8.6v-4.3h4.3zM52.2 2.7c4.8 0 8.6 3.9 8.6 8.6v4.3h-4.3v-4.3c0-2.4-1.9-4.3-4.3-4.3h-6.4V2.7h6.4z" fill="#888"/>
</svg>
