<svg xmlns="http://www.w3.org/2000/svg" viewBox="0 0 64 64" width="64" height="64">
  <path fill="#fdbf00" d="M62.8 47.9L40.2 7.1c-1.7-3-4.8-4.8-8.2-4.8s-6.5 1.8-8.2 4.8L1.2 47.9c-1.6 2.9-1.6 6.4.1 9.3C3 60 6.1 61.8 9.4 61.8h45.2c3.3 0 6.4-1.7 8.1-4.6 1.7-2.9 1.7-6.4.1-9.3z"/>
  <path fill="#fdbf00" d="M62.7 57.1C61 60 58 61.7 54.6 61.7H32V2.3c3.4 0 6.5 1.8 8.2 4.8l22.6 40.8c1.6 2.9 1.6 6.4-.1 9.2z"/>
  <path fill="#5a5a5a" d="M26.4 13v28.1h11.2V13H26.4zM32 44.9c-3.1 0-5.6 2.5-5.6 5.6 0 3.1 2.5 5.6 5.6 5.6s5.6-2.5 5.6-5.6c0-3.1-2.5-5.6-5.6-5.6z"/>
</svg>