<svg height="64" viewBox="50 60 412 412" width="64" xmlns="http://www.w3.org/2000/svg">
	<rect fill="#fff" height="378" rx="50" stroke="#666" stroke-width="32" width="378" x="66" y="76"/>
	<circle cx="256" cy="378.5" r="25"/>
	<path transform="translate(510 0) scale(-1 1)"
		d="m256 128.5c-44.112 0-80 35.888-80 80 0 11.046 8.954 20 20 20s20-8.954 20-20c0-22.056 17.944-40 40-40s40 17.944 40 40-17.944 40-40 40c-11.046 0-20 8.954-20 20v50c0 11.046 8.954 20 20 20s20-8.954 20-20v-32.531c34.466-8.903 60-40.26 60-77.469 0-44.112-35.888-80-80-80z"/>
</svg>