<svg xmlns="http://www.w3.org/2000/svg" viewBox="0 0 64 64" width="64" height="64">
  <path d="M28 2.7C14.7 2.7 4 8 4 14.7v26.7c0 6.6 10.7 12 24 12s24-5.4 24-12V14.7c0-6.7-10.7-12-24-12z" fill="#fcfcfc"/>
  <path d="M28.1 53.3l.1-5.3h-.1c-5.7 0-10.9-1.1-14.6-3-2.9-1.4-4.1-2.9-4.1-3.7v-5.8C13.7 38.3 20.5 40 28 40h.2l.1-5.3H28c-5.7 0-10.9-1.1-14.6-3-2.9-1.4-4.1-2.9-4.1-3.7v-5.8c4.4 2.7 11.1 4.5 18.7 4.5 7.5 0 14.3-1.7 18.7-4.5V28H52V14.7c0-6.6-10.7-12-24-12S4 8 4 14.7v26.7C4 48 14.7 53.3 28.1 53.3c-.1 0 0 0 0 0zM13.4 11c3.7-1.8 8.9-3 14.6-3s10.9 1.1 14.6 3c2.9 1.4 4.1 2.9 4.1 3.7 0 .8-1.2 2.3-4.1 3.7-3.7 1.8-8.9 3-14.6 3s-10.9-1.1-14.6-3c-2.9-1.4-4.1-2.9-4.1-3.7 0-.9 1.3-2.3 4.1-3.7z" fill="#666"/>
  <path d="M39.7 50.3c-.4-1.5-.4-3.1 0-4.6l-2.8-1.6 2.8-4.9 2.8 1.6c1.1-1.1 2.5-1.9 4-2.3v-3.3h5.7v3.3c1.5.5 2.9 1.3 4 2.3l2.8-1.6 2.8 4.9-2.8 1.6c.4 1.5.4 3.1 0 4.6l2.8 1.6-2.8 5-2.8-1.6c-1.1 1.1-2.5 1.9-4 2.3v3.3h-5.7v-3.3c-1.5-.4-2.9-1.2-4-2.3l-2.8 1.6-2.8-4.9 2.8-1.7zm9.7 2c2.4.1 4.3-1.8 4.4-4.1.1-2.4-1.8-4.3-4.1-4.4h-.3c-2.4.1-4.2 2.1-4.1 4.4 0 2.2 1.8 4 4.1 4.1z" fill="#1d83d4"/>
</svg>
