<svg height="512" viewBox="0 0 512 512" width="512" xmlns="http://www.w3.org/2000/svg"><path d="m256 0c-76.544.094-138.573 62.122-138.667 138.667v85.333c0 5.891 4.776 10.667 10.667 10.667h42.667c5.891 0 10.667-4.776 10.667-10.667v-85.333c-.001-41.238 33.429-74.667 74.666-74.667s74.667 33.429 74.667 74.667v85.333c0 5.891 4.776 10.667 10.667 10.667h42.666c5.891 0 10.667-4.776 10.667-10.667v-85.333c-.094-76.545-62.123-138.573-138.667-138.667z" fill="#455a64"/><path d="m128 213.333h256c29.455 0 53.333 23.878 53.333 53.333v192c0 29.456-23.878 53.334-53.333 53.334h-256c-29.455 0-53.333-23.878-53.333-53.333v-192c0-29.456 23.878-53.334 53.333-53.334z" fill="#ffc107"/><path d="m309.333 330.667c.124-29.455-23.653-53.434-53.108-53.558s-53.434 23.653-53.558 53.108c-.086 20.36 11.427 38.992 29.674 48.023l-8.235 57.6c-.825 5.833 3.235 11.23 9.068 12.055.494.07.993.105 1.492.105h42.667c5.891.06 10.715-4.667 10.774-10.558.005-.543-.03-1.086-.108-1.623l-8.235-57.6c18.024-9.02 29.452-27.399 29.569-47.552z" fill="#455a64"/></svg>