<svg xmlns="http://www.w3.org/2000/svg" viewBox="0 0 64 64" width="64" height="64">
  <path fill="#fff" d="M4 4.5h52v51H4z" />
  <path fill="#1d83d4" d="M39.7 50.3c-.4-1.5-.4-3.1 0-4.6l-2.8-1.6 2.8-4.9 2.8 1.6c1.1-1.1 2.5-1.9 4-2.3v-3.3h5.7v3.3c1.5.5 2.9 1.3 4 2.3l2.8-1.6 2.8 4.9-2.8 1.6c.4 1.5.4 3.1 0 4.6l2.8 1.6-2.8 5-2.8-1.6c-1.1 1.1-2.5 1.9-4 2.3v3.3h-5.7v-3.3c-1.5-.4-2.9-1.2-4-2.3l-2.8 1.6-2.8-4.9 2.8-1.7zm9.7 2c2.4.1 4.3-1.8 4.4-4.1.1-2.4-1.8-4.3-4.1-4.4h-.3c-2.4.1-4.2 2.1-4.1 4.4 0 2.2 1.8 4 4.1 4.1z" />
  <path fill="#666" d="M9.5 11h43v6h-43v-6zM9.5 25h43v6h-43v-6zM9.5 39h21v6h-21v-6z"/>
</svg>