<svg viewBox="0 0 24 24" width="64" height="64" xmlns="http://www.w3.org/2000/svg">
  <defs>
    <mask id="hole">
      <rect x="0" y="0" width="24" height="24" fill="#fff"/>
      <circle cx="12" cy="12" r="4.8" fill="#000"/>
    </mask>
  </defs>
  <path fill="#444" mask="url(#hole)"
    d="M20.745 13.082c.047-.367.111-.732.111-1.114s-.066-.744-.111-1.113l2.133-1.617c.476-.36.609-1.019.31-1.535l-1.917-3.318a1.183 1.183 0 00-1.486-.5l-2.458 1.037c-.6-.455-1.237-.86-1.941-1.154l-.327-2.611A1.18 1.18 0 0013.886.119h-3.832c-.598 0-1.103.443-1.176 1.038l-.327 2.611c-.704.294-1.341.7-1.941 1.154L4.152 3.884a1.183 1.183 0 00-1.486.5L.75 7.704a1.183 1.183 0 00.31 1.535l2.133 1.617c-.047.367-.111.732-.111 1.114s.066.744.111 1.113L1.06 14.7a1.183 1.183 0 00-.31 1.536l1.917 3.318c.299.519.936.732 1.486.5l2.458-1.038c.6.455 1.237.86 1.941 1.154l.327 2.611a1.183 1.183 0 001.173 1.039h3.832c.598 0 1.103-.446 1.176-1.039l.327-2.611c.704-.294 1.341-.7 1.941-1.154l2.458 1.038c.55.232 1.187.019 1.486-.5l1.917-3.318a1.182 1.182 0 00-.31-1.536z" />
</svg>
