<svg xmlns="http://www.w3.org/2000/svg" viewBox="0 0 64 64" width="64" height="64">
  <path fill="#666" d="M5.5 37c-1.4-7.2.1-14.5 4.2-20.6 4.1-6 10.3-10 17.5-11.3.5-.1 1.1 0 1.5.3.4.2.7.6.9 1 .9 1.9 2.5 3.3 4.5 3.8 1.1.3 1.8 1.4 1.6 2.6-.8 5.2 3.9 9.2 8.6 8.2l.4-.1.4-.1c.6-.2 1.2-.1 1.8.2.5.3.9.8 1.1 1.4.7 3.2 3.5 5.4 6.7 5.6 2.5.1 4.4 2.2 4.3 4.8-.5 12.7-9.4 23.2-21.8 25.6C22.6 61.3 8.4 51.7 5.5 37zm21-27.1c-5.3 1.3-9.9 4.5-13 9.1C10 24 8.8 30.1 10 36.1 12.4 48.4 24.2 56.4 36.4 54c10.3-2 17.7-10.8 18.1-21.3l-.1-.1c-4.4-.2-8.4-2.9-10.2-6.9-6 .7-11.7-3.4-12.8-9.4-.1-.8-.2-1.5-.2-2.3-1.9-1-3.5-2.4-4.7-4.1z" />
  <path fill="#fff" d="M44.2 25.6c-6 .7-11.7-3.4-12.8-9.4-.1-.8-.2-1.5-.2-2.3-1.9-.9-3.5-2.3-4.7-4-5.3 1.3-9.9 4.5-13 9.1C10 24 8.8 30.1 10 36.1 12.4 48.4 24.2 56.4 36.4 54c10.3-2 17.7-10.8 18.1-21.3l-.1-.1c-4.4-.2-8.4-3-10.2-7z"/>
  <circle fill="#1d83d4" cx="23.2" cy="21.4" r="4.1"/>
  <circle fill="#1d83d4" cx="45.5" cy="7.8" r="3.4"/>
  <circle fill="#1d83d4" cx="39.9" cy="34.1" r="3.8"/>
  <circle fill="#1d83d4" cx="52.3" cy="16.4" r="2.3"/>
  <circle fill="#1d83d4" cx="25.4" cy="42.2" r="4.9"/>
</svg>