<svg xmlns="http://www.w3.org/2000/svg" viewBox="0 0 64 64" width="64" height="64">
  <path d="M34.9 55c6.8-1.4 11.7-7.4 11.7-14.3V32c0-2-.4-4-1.2-5.8H18.6c-.8 1.8-1.2 3.8-1.2 5.8v8.8c0 6.9 4.9 12.9 11.7 14.3" fill="#fff"/>
  <path d="M34.9 55c6.8-1.4 11.7-7.4 11.7-14.3V32c0-2-.4-4-1.2-5.8H18.6c-.8 1.8-1.2 3.8-1.2 5.8v8.8c0 6.9 4.9 12.9 11.7 14.3V37.8h5.8V55zm-21.8-6.4c-1-2.5-1.6-5.2-1.6-7.8H2.8V35h8.8v-3c0-1.9.3-3.7.7-5.4l-6.5-3.7 2.9-5.1 5.9 3.4.6-.9h33.5l.6.9 5.9-3.4 2.9 5.1-6.5 3.7c.5 1.7.7 3.5.7 5.4v2.9h8.8v5.8h-8.8c0 2.8-.6 5.4-1.6 7.8l7.3 4.2-2.9 5.1-7.4-4.3c-3.9 4.8-9.7 7.6-15.9 7.6-6.2 0-12-2.8-15.9-7.6l-7.4 4.3-2.9-5.1 7.5-4.1zm7.2-34.1c0-6.4 5.2-11.7 11.7-11.7S43.7 8 43.7 14.5H20.3z" fill="#666"/>
  <path d="M20.3 14.5c0-6.4 5.2-11.7 11.7-11.7S43.7 8 43.7 14.5H20.3z" fill="#1d83d4"/>
</svg>
