<svg height="64" viewBox="0 0 512 512" width="64" xmlns="http://www.w3.org/2000/svg">
	<path d="m437.072 41.644c-55.525-55.525-145.87-55.525-201.395 0l-195.176 195.176c-9.756 9.755-9.755 25.572 0 35.328s25.572 9.756 35.328 0l195.177-195.177c36.046-36.045 94.695-36.045 130.739 0 36.133 36.132 36.13 94.609 0 130.738l-244.487 244.488c-13.152 13.154-34.556 13.154-47.708 0-13.154-13.152-13.152-34.555 0-47.708l233.144-233.146c9.756-9.755 9.755-25.572 0-35.328s-25.572-9.756-35.328 0l-233.145 233.144c-32.632 32.634-32.632 85.733 0 118.365 32.635 32.635 85.733 32.632 118.364.001l244.487-244.487c55.662-55.66 55.655-145.74 0-201.394z" fill="#555"/>
</svg>