<svg xmlns="http://www.w3.org/2000/svg" viewBox="0 0 64 64" width="64" height="64">
	<path fill="#888" d="M2.5 8.4c0-1.6 1.3-2.9 2.9-2.9h53.2c1.6 0 2.9 1.3 2.9 2.9v47.3c0 1.6-1.3 2.9-2.9 2.9H5.4c-1.6 0-2.9-1.3-2.9-2.9V8.4zm5.9 2.9v41.3h47.3V11.3H8.4z" />
	<path fill="#fff" d="M8.4 11.3h47.3v41.3H8.4z"/>
	<circle fill="#666" cx="23.2" cy="23" r="6"/>
	<path fill="#666" d="M23.2 30c-4.4 0-8 3.6-8 8h16c0-4.4-3.6-8-8-8z"/>
	<path fill="#666" d="M15.3 41.3h35.6V47H15.3z"/>
	<path fill="#666" d="M34.8 30h16v5.7h-16zM34.8 20h16v5.7h-16z"/>
</svg>
