<svg enable-background="new 0 0 512 512" height="64" viewBox="0 0 512 512" width="64" xmlns="http://www.w3.org/2000/svg"><circle cx="256" cy="256" fill="#fff" r="200"/><path d="m437.02 74.98c-48.353-48.351-112.64-74.98-181.02-74.98s-132.667 26.629-181.02 74.98c-48.351 48.353-74.98 112.64-74.98 181.02s26.629 132.667 74.98 181.02c48.353 48.351 112.64 74.98 181.02 74.98s132.667-26.629 181.02-74.98c48.351-48.353 74.98-112.64 74.98-181.02s-26.629-132.667-74.98-181.02zm-181.02-4.98c30.327 0 55 24.673 55 55s-24.673 55-55 55-55-24.673-55-55 24.673-55 55-55zm70 350h-140v-30h30v-150h-30v-30h110v180h30z" fill="#777"/></svg>