<svg xmlns="http://www.w3.org/2000/svg" viewBox="0 0 64 64" width="64" height="64">
  <path d="M49.1 30.1h.2c.3 0 .6.1 1 .2.1 0 .2.1.3.1h.1c.1.1.2.1.3.2.3.2.6.4.9.9.1.2.2.3.3.6 4.1 8.7 7.5 17.7 11.4 26.4.2.6.3 1.2.2 1.9-.1 1.3-1 2.6-2.3 3-.3.1-.7.2-1.1.2-.4 0-.9 0-1.3-.1s-.9-.3-1.2-.6c-.4-.3-.9-.9-1.1-1.3-.9-1.8-1.7-3.5-2.5-5.5H43.4c-.7 1.8-1.5 3.5-2.3 5.2-.2.6-.6 1.1-1.2 1.5-.3.2-.6.3-1 .4-1.2.3-2.7.1-3.6-.7-.3-.2-.6-.6-.9-1.1-.2-.3-.3-.9-.3-1.2-.1-.6 0-1.1.2-1.8 3.5-9 7.5-17.7 11.4-26.5l.3-.6c.2-.3.4-.6.9-.9.1-.1.2-.1.3-.2 0 0 .1 0 .1-.1.1 0 .2-.1.2-.1.2-.1.6-.2 1-.2.3.3.5.3.6.3zm0 11.5c-.9 2.6-2.1 4.9-3.3 7.6H52c-.8-2.6-1.6-5.3-2.9-7.6zm-37.4-35c.3-1.9.6-3.5 1-4.5C13.1.6 14 0 15.3 0c.6 0 1.2.1 1.6.3 1 .4 1.5 1.1 1.5 2.1 0 .2 0 .6-.1 1-.1.5-.3 1.4-.5 2.6 2.4-.3 4.6-.9 6.8-1.4.3-.2.8-.2 1.1-.2 1.2 0 2.1.6 2.4 1.8.1.3.2.8.2 1.1 0 1.3-.8 2.2-2.4 2.6-2.1.5-5.1 1.1-9.1 1.6-.2 1.3-.3 3-.5 4.9 1.9-.5 4-.9 6.2-1.1.1-.2.1-.4.2-.6.2-.8.4-1.2.6-1.5.4-.4 1-.6 1.7-.6 2.1 0 3.1.9 3.1 2.5 0 .2 0 .5-.1.9 2.5.6 4.5 1.6 6 3 2.6 2.2 3.9 5 3.9 8.4 0 5.1-2.4 9-7.2 11.4-1.4.8-3 1.3-4.6 1.7-.8.2-1.3.3-1.7.3-1.4 0-2.1-.8-2.1-2.2 0-.9.6-1.6 1.8-2.1 2.7-1 4.5-2.2 5.7-3.5 1.3-1.5 2.1-3.6 2.1-5.9 0-3.7-1.8-6-5.4-7.2-2.7 5.7-5.8 9.9-9.5 12.8v.2c.2 1 .4 1.6.5 1.9.2.5.2 1.1.2 1.6 0 1.2-.5 2.1-1.6 2.5-.5.2-1 .3-1.4.3-1.2 0-1.9-.6-2.4-1.8-.1-.5-.2-.9-.3-1-2.6 1.5-4.8 2.3-6.4 2.3s-2.8-.7-3.8-2.1C1 35.4.6 33.8.6 31.7c0-5 3.3-9.4 10-13.2.1-1.6.2-3.9.4-6.6-2.4.1-4 .2-4.9.2s-1.4-.1-1.8-.4c-.6-.5-1-1.2-1-2.1 0-1.1.4-1.9 1.4-2.4.4-.2.9-.3 1.4-.3h.4c1.3-.1 3.1-.1 5.2-.3zm-1.2 17.6c-3 2.4-4.5 4.6-4.5 6.9 0 1.3.3 2.1 1.1 2.1.9 0 2.2-.6 4-1.8-.5-2.6-.6-5-.6-7.2zm10.3-4.4c-1.5.2-3.1.6-4.8 1.3v1.6c0 1.2 0 2.6.1 4.2 1.9-2.2 3.4-4.6 4.7-7.1z" fill="#666"/>
</svg>
