<svg height="22" viewBox="0 50 316 220" width="32" xmlns="http://www.w3.org/2000/svg"><path fill="#666" d="m108 184s-6-5-7-7-4-2-5-3-11-4-13-2-5 3-6 0-2-3-3-3c-2 0-1-2-1-4s-1-4-2-2c-1 1-5 4-6 3-1-2-3-8 1-9s8 0 9 1 2 4 3 4 1-3 1-5 3-4 5-7c1-3 2-4 3-5 2-1 3-2 4-3 2-1 4-2 5-3s5-3 6-2c1 0 2 0 1-2s-3-8-5-11-2-4-3-6c-2-5-3-7-4-5s-3 4-3 2c-1-2-1-2-2-3s-2-1-4-2c-2 0-3 0-3 2s-2 4 0 6c1 2 2 4 1 5s0 5-1 5-2 0-2-1c0-2 1-4-2-4s-4-1-6-3c-2-1-3-1-3-4s0-4 2-6 3-3 4-2c2 1 3 1 3 0 1-1 3 0 3-2 0-1-2-1-2-3s1-1 2-4c0-3-2-8-5-7-4 1-8 5-9 3 0-2-2-1-5 0s-16-1-17-2c0 0-2-2-3-1-2 1-6 1-8 1-1 0-3 2-4 1-2-1-8-2-9-3s-3-1-4-1-4-1-5 0-3 3-5 4c-1 1-3 1-1 4 1 3-3 4-2 7s0 10 4 12c5 1 8 2 11 0s7-2 8 0 2 6 6 8 8 8 8 11 0 12 4 17 9 14 9 12 0-4 1-3c1 2 3 6 7 7s6 1 7 3c2 1 3 2 4 3 2 1 6 3 6 4 1 1 0 3 0 6 0 1-1 3 1 5 1 2 4 8 6 9s4 4 3 7-3 16-3 19-3 12 0 16c2 4 6 5 8 5s0-1 0-2c-1-2-1-4 0-6s1-3 0-5 0-3 1-4 6-5 8-7c1-2 11-13 12-14s4-3 5-7 4-11 2-13-11-4-11-4z"/><path fill="#666" d="m131 82c1-1 2-5 3-6h-37c1 1 2 9 2 12s1 2 2 4c1 1 1 3 0 5s-1 5 1 9 4 9 6 10c2 0 1 3 3 2 1-1 1-3 3-6 1-3 1-5 4-7s10-7 12-8c2-2 3-3 3-6-2-5-3-7-2-9z"/><path fill="#666" d="m312 96c-1-1-10-8-13-7-4 1-10-2-11-3s-10-3-14-3c-2 0-12-2-16-4s-7-10-15-9c-1 0-10 1-12 4-2 2-3 4-5 5s-5 0-5 2 1 7 0 6c-2-1-3-4-4-2s-2 3-3 2-4 0-5 1c0 1-5 4-7 4s-3 1-4 2c-1 0-9 4-10 3-2-1-2 0-3 0 0 0-3 0-5-3-2-2-2-1-4-4-2-2-2-4-4-3s-10 9-14 13c-3 4-9 8-6 11s4 2 5 4 1 3 1 4 3 3 5 0c1-3 2-5 3-4 2 0 2 2 1 4s-1 6-4 5c-3 0-6-2-7-1-1 0-1 1-3 2-1 1-4 5-6 5-2 1-5 0-3 2s4 6 2 6-6 0-6 2-1 3-1 5c0 1 2 4 4 3s5-2 6-4 2-5 4-4 8 3 8 4-1 4 0 3 3-2 3-2c1 0 2 1 2 2s3 2 3 0 1 0 2 0c1 1 6 1 6 2 1 0 2 2 0 4s-3 3-6 1c-3-1-6 1-9 0s-2-4-5-5c-4-1-12 0-14 1-3 1-3 1-4 2s-8 9-8 14c0 4 3 17 11 15 8-1 13 0 12 2s0 3 1 6c2 3 5 21 6 24s0 7 3 6c4-1 8-2 9-5 2-4 2-8 4-10s5-2 5-5-1-10 1-11c1-2 8-9 9-12s2-4-1-4-7 0-8-3c0-2-3-7-3-8s2-1 3 1 4 9 8 8 9-3 9-5-2-5-3-5c-2 0-4-1-4-3s0-1 3 0c2 1 3 2 6 3 3 0 7 4 9 5s5 11 6 12 2 1 3-1 4-8 6-10 2-4 3-3 6 5 6 7 0 7 1 5c1-1 2-4 3-3s1 3 3 2c2-2 6-2 4-6s-1-5 1-6c1 0 10-2 10-6 0-5-3-7-1-10 1-2 4-5 4-3 0 1-1 6 1 5s5-1 5-2 0-5 0-6c1-1 8-7 9-10s2-5 1-7-3-1-2-4c2-2 5-5 7-5 7-1 5 8 5 10s0 7 1 4c1-2 2-5 4-7s3-3 3-5 0-2 2-3 11-4 11-7c1-2-1-4 1-4s4 2 5 1 3-3 3-5c0 2-3-1-4-2z"/><path fill="#666" d="m274 137c-1 2-1 2-2 5s-1 2-2 4-3 2-4 4c-2 1-2 4-2 4-1 2 6-3 9-4 3-2 2-3 2-6s1-3 2-4 0-3 0-5c-1-2-2 0-3 2z"/><path fill="#666" d="m250 192c1-1 0-2 1-2s2 1 4 0c1-1 3 0 3-2 0-1 0-3 0-5 0-1-2-2-4 0s-4 3-4 3c0-1 1-3 0-4 0-1 0-2-2-1s-4 1-4 2c-1 1-2 4-3 2s-5-4-5-4-5-4-3-2c2 3 4 7 5 8 1 2 2 3 4 3 1-1 2-1 3 0 2 1 5 3 5 2z"/><path fill="#666" d="m279 189c-2-1-1-2-4-2s-5 0-6 0-4-2-4 0 4 2 4 3c1 0-1 2 0 2 2 1 3 2 5 2s3 1 4 1c2 0 3 0 3-1-1-1-1-2-1-3 1-2 1-2-1-2z"/><path fill="#666" d="m278 199c-1-2-3-7-3-5s-4 4-5 4 0-1 0-2-1-2-3-1c-3 1-3 3-4 3s-3-1-4 1c-1 1-2 4-4 4-1 0-6 1-6 3s1 5 1 6c0 2-2 5 1 6 2 1 3 1 5 0s10-4 11-3 3 3 3 3c1 1 2 3 4 3s3 1 4 1 4-1 4-3c1-2 2-6 3-8s1-4-1-6c-2 0-6-3-6-6z"/></svg>