<svg xmlns="http://www.w3.org/2000/svg" width="40" height="40" viewBox="0 0 40 40"><path d="M20.004 10.998L5 20.998v10.997c0 1.663 1.342 3.001 3.005 3.001h6.001v-6.999c0-2.18 1.814-4.002 3.991-4.002h4.006c2.177 0 3.999 1.821 3.999 4.006v6.995h6.001A2.99 2.99 0 0 0 35 32V21.002zM18 27.997v4.996h3.998v-4.996z" class="background" fill="#e6e6e6"/><path d="M20.004 5L5 15v3.998l15.004-10 14.996 10v-3.994zM18 25.998A1.995 1.995 0 0 0 16 28v6.995h8.001v-6.999a1.995 1.995 0 0 0-2.003-2z" class="foreground" fill="#666"/></svg>