<svg xmlns="http://www.w3.org/2000/svg" width="40" height="40" viewBox="0 0 40 40"><path d="M8.025 5.032c-1.833-.064-3.243 1.746-2.997 3.5.011 7.914-.019 15.825.015 23.736.12 1.761 1.905 2.914 3.572 2.683 7.891-.007 15.783.023 23.671-.011 1.758-.121 2.914-1.901 2.684-3.572v-7.113c-.461-.355-1.051.234-.666.68.53 1.134 1.013 2.536.129 3.644-.775.839-1.784 1.621-2.944 1.803-1.36.215-2.385-.783-3.186-1.731-.507-.303-.945.29-.877.831-.076 1.614-1.46 3.088-3.137 2.978-1.603.239-3.383-.748-3.629-2.437-.189-.424.038-1.221-.468-1.369-.564-.351-.813.465-1.206.745-1.047 1.281-3.043 1.259-4.237.215a3.058 3.058 0 0 1-1.296-4.12c.14-.464.646-.986.071-1.345-1.08.227-2.332.696-3.379-.007-1.084-.605-1.493-1.871-1.814-2.99-.287-1.455.726-2.71 1.928-3.379.858-.344.185-.87-.454-.926-1.648-.359-2.65-2.185-2.162-3.78.065-1.538 1.217-3.042 2.843-3.087.487-.072 1.11.064 1.515-.129-.831-.971-1.761-2.147-1.338-3.519.212-.824 1.221-1.55-.128-1.3z" class="background" fill="#e6e6e6"/><path d="M24.001 30.484c.42 0 .53-.008.53-.008a.956.956 0 0 0 .831-.744l.344-1.902a1.172 1.172 0 0 1 .813-.857l1.61-.492a1.134 1.134 0 0 1 1.141.265l1.3 1.402a.903.903 0 0 0 1.085.151l.907-.605a.952.952 0 0 0 .299-1.073l-.749-1.807a1.206 1.206 0 0 1 .216-1.171l.979-1.206a1.115 1.115 0 0 1 1.096-.397l1.844.469a.9.9 0 0 0 .99-.461l.45-1.07a.964.964 0 0 0-.336-1.07l-1.618-1.126a1.213 1.213 0 0 1-.453-1.103s.17-.994.17-1.879v-.057c-.004-.056.295-.207.665-.328l1.803-.605a.9.9 0 0 0 .578-.926l-.208-1.232a.968.968 0 0 0-.862-.718l-1.973-.072a1.228 1.228 0 0 1-.982-.677l-.492-.99a1.119 1.119 0 0 1 .091-1.164l1.198-1.49a.907.907 0 0 0-.007-1.095l-.892-.99a.956.956 0 0 0-1.108-.144L31.564 6.32a1.202 1.202 0 0 1-1.186-.038l-.787-.491a1.157 1.157 0 0 1-.544-1.043l.208-1.924a.926.926 0 0 0-.593-.93l-1.327-.378a.937.937 0 0 0-1.002.473l-.877 1.75a1.134 1.134 0 0 1-1.02.582l-.427-.004-.431.004a1.141 1.141 0 0 1-1.02-.583l-.885-1.75a.945.945 0 0 0-.998-.472l-1.323.378a.926.926 0 0 0-.597.93l.208 1.924a1.157 1.157 0 0 1-.544 1.047l-.786.483a1.202 1.202 0 0 1-1.187.042l-1.705-1.01a.952.952 0 0 0-1.103.14l-.896.99a.91.91 0 0 0-.004 1.097l1.198 1.497c.246.302.288.831.091 1.168l-.488.986a1.232 1.232 0 0 1-.99.68l-1.973.068a.964.964 0 0 0-.858.719l-.211 1.232a.903.903 0 0 0 .582.926l1.803.604c.366.121.669.273.665.33v.052c0 .885.174 1.879.174 1.879a1.213 1.213 0 0 1-.461 1.103l-1.618 1.127a.968.968 0 0 0-.333 1.07l.454 1.069c.185.359.59.552.983.465l1.844-.473c.378-.098.87.083 1.096.397l.983 1.202c.264.287.363.816.211 1.172l-.744 1.806a.956.956 0 0 0 .302 1.077l.9.605a.9.9 0 0 0 1.084-.151l1.304-1.398a1.134 1.134 0 0 1 1.138-.269l1.61.492a1.172 1.172 0 0 1 .813.858l.344 1.9a.956.956 0 0 0 .831.745s.114.008.53.008zm0-12.598a2.075 2.075 0 0 1-.4-.037l-.038-.012a2.079 2.079 0 0 1-.714-.302h-.004a2.083 2.083 0 0 1-.31-.257l-.008-.008a2.086 2.086 0 0 1-.25-.302l-.007-.011a2.09 2.09 0 0 1-.192-1.947l.015-.038v-.011a2.09 2.09 0 0 1 1.103-1.088h.004a2.079 2.079 0 0 1 .378-.118h.011a2.075 2.075 0 0 1 .832 0h.008a2.079 2.079 0 0 1 .374.114l.019.011a2.079 2.079 0 0 1 .65.439l.007.007a2.086 2.086 0 0 1 .246.302l.008.008c.071.11.132.227.185.348v.007l.004.004a2.094 2.094 0 0 1 .12 1.213v.02a2.09 2.09 0 0 1-.12.377v.012a2.09 2.09 0 0 1-.19.34l-.01.019a2.086 2.086 0 0 1-.239.287l-.023.023a2.083 2.083 0 0 1-.65.434v.004h-.007a2.079 2.079 0 0 1-.367.113l-.03.008a2.079 2.079 0 0 1-.405.042z" class="foreground" fill="#666"/></svg>