<svg xmlns="http://www.w3.org/2000/svg" width="40" height="40" viewBox="0 0 40 40"><path d="M7.974 4.997A2.97 2.97 0 0 0 5 7.971v24.047a2.968 2.968 0 0 0 2.974 2.974h24.047a2.97 2.97 0 0 0 2.974-2.974V17.865l-8.911 8.911a2.003 2.003 0 0 1-.008.008 4.006 4.006 0 0 1-1.86 1.046 2.003 2.003 0 0 1-.154.03c-2.275.379-7.793 1.116-7.793 1.116a2.003 2.003 0 0 1-2.252-2.245s.737-5.518 1.115-7.8a2.003 2.003 0 0 1 .038-.17c.177-.7.544-1.334 1.054-1.845L28.136 4.997zm25.456.367L19.058 19.732c-.227 1.413-.457 3.136-.699 4.901 1.765-.242 3.5-.472 4.913-.699l11.723-11.73V7.97a2.957 2.957 0 0 0-1.565-2.607z" class="background" fill="#e6e6e6"/><path d="M35.21 3.588a2.003 2.003 0 0 0-2.834 0L17.637 18.326a2.003 2.003 0 0 0-.529.926c-.363 2.18-1.11 7.743-1.11 7.743s5.558-.752 7.739-1.107a2.003 2.003 0 0 0 .933-.525L39.41 10.624a2.003 2.003 0 0 0 0-2.842z" class="foreground" fill="#666"/></svg>