<svg xmlns="http://www.w3.org/2000/svg" width="40" height="40" viewBox="0 0 40 40"><path d="M8.001 5A2.994 2.994 0 0 0 5 8.001v24.002A2.99 2.99 0 0 0 8.001 35h24.002A2.99 2.99 0 0 0 35 32.003v-11.63l-8.814 8.818a2.003 2.003 0 0 1-.008 0c-1.674 1.663-4.403 1.738-6.165.166v.011l-8.992-7.998a4.528 4.528 0 0 1-.385-6.361 4.524 4.524 0 0 1 6.357-.37l5.825 5.181L33.817 8.821A4.6 4.6 0 0 1 35 7.986 2.994 2.994 0 0 0 32.003 5zM35 13.3L24.318 23.986a2.003 2.003 0 0 1-2.748.072l-7.234-6.437c-.227-.2-.51-.182-.71.045a2.003 2.003 0 0 1-.008 0c-.2.227-.178.51.045.707a2.003 2.003 0 0 1 .008 0l9 7.994a2.003 2.003 0 0 1 0 .008c.211.189.48.173.68-.02L35 14.704z" class="background" fill="#e6e6e6"/><path d="M36.897 9.502a2.498 2.498 0 0 0-1.663.73l-12.33 12.336-7.237-6.437a2.503 2.503 0 1 0-3.327 3.742l9 7.995a2.502 2.502 0 0 0 3.428-.095L38.772 13.77a2.498 2.498 0 0 0-1.875-4.271z" class="foreground" fill="#666"/></svg>