<?xml version="1.0" encoding="UTF-8" standalone="no"?>
<svg
   xmlns:dc="http://purl.org/dc/elements/1.1/"
   xmlns:cc="http://creativecommons.org/ns#"
   xmlns:rdf="http://www.w3.org/1999/02/22-rdf-syntax-ns#"
   xmlns:svg="http://www.w3.org/2000/svg"
   xmlns="http://www.w3.org/2000/svg"
   xmlns:sodipodi="http://sodipodi.sourceforge.net/DTD/sodipodi-0.dtd"
   xmlns:inkscape="http://www.inkscape.org/namespaces/inkscape"
   width="40"
   height="40"
   viewBox="0 0 40 40"
   version="1.1"
   id="svg852"
   sodipodi:docname="menu-sources-icones.svg"
   inkscape:version="1.0.2 (394de47547, 2021-03-26)">
  <sodipodi:namedview
     pagecolor="#ffffff"
     bordercolor="#666666"
     borderopacity="1"
     objecttolerance="10"
     gridtolerance="10"
     guidetolerance="10"
     inkscape:pageopacity="0"
     inkscape:pageshadow="2"
     inkscape:window-width="640"
     inkscape:window-height="480"
     id="namedview7"
     showgrid="true"
     inkscape:zoom="12.08972"
     inkscape:cx="22.027786"
     inkscape:cy="18.045725"
     inkscape:current-layer="layer33"
     inkscape:snap-global="true"
     inkscape:document-rotation="0"
     showguides="false">
    <inkscape:grid
       type="xygrid"
       id="grid977" />
  </sodipodi:namedview>
  <defs
     id="defs846" />
  <metadata
     id="metadata849">
    <rdf:RDF>
      <cc:Work
         rdf:about="">
        <dc:format>image/svg+xml</dc:format>
        <dc:type
           rdf:resource="http://purl.org/dc/dcmitype/StillImage" />
        <dc:title></dc:title>
      </cc:Work>
    </rdf:RDF>
  </metadata>
  <g
     inkscape:groupmode="layer"
     id="layer1"
     inkscape:label="accueil"
     style="display:inline">
    <g
       inkscape:groupmode="layer"
       id="layer32"
       inkscape:label="accueil-source"
       style="display:none">
      <path
         id="fond-carre-27"
         style="display:inline;fill:#e6e6e6;stroke-width:0.999994"
         d="M 20,11 5,21 v 10.953123 c 0,1.68797 1.3379995,3.046876 3,3.046876 h 12 12 c 1.662,0 3,-1.358906 3,-3.046876 V 21 Z"
         sodipodi:nodetypes="ccsscsscc" />
      <path
         id="rect17210"
         style="display:inline;fill:#666666;stroke:#ffffff;stroke-width:4;stroke-miterlimit:4;stroke-dasharray:none;stroke-opacity:1;paint-order:markers stroke fill"
         d="m 17.999999,26 h 4.000002 C 23.108,26 24,26.899284 24,28.016332 V 35 H 16 V 28.016332 C 16,26.899284 16.891999,26 17.999999,26 Z"
         sodipodi:nodetypes="sssccss" />
      <path
         id="path17224"
         style="display:inline;fill:#e6e6e6;stroke-width:0.999994"
         d="M -5.0000006,5 C -6.9999992,5 -7.8330064,5.7437207 -8.6562504,6.2187498 -11.560244,8.4405719 -20,15 -20,15 v 17 c 0,1.662 1.338,3 3,3 h 11.9999994 c 0,-5.000001 0,-25.0000001 0,-30 z"
         sodipodi:nodetypes="cccsccc" />
      <path
         id="path17231"
         style="display:inline;fill:#666666;fill-opacity:1;stroke-width:0.999994"
         d="M 20,5 5,15 v 4.0625 L 20,9 35,19.0625 V 15 Z"
         sodipodi:nodetypes="ccccccc" />
    </g>
    <g
       inkscape:groupmode="layer"
       id="layer33"
       inkscape:label="accueil-final"
       style="display:inline">
      <g
         id="g17286"
         transform="scale(3.7795276)"
         style="stroke-width:0.264583">
        <path
           id="fond-carre-27-2"
           d="M 5.2916667,2.9104167 1.3229167,5.55625 v 2.9104166 c 0,0.4397375 0.3540124,0.79375 0.79375,0.79375 H 3.7052002 V 7.4083333 c 0,-0.5771626 0.4791038,-1.0588501 1.0562664,-1.0588501 h 1.0588501 c 0.5771623,0 1.0583333,0.4816875 1.0583333,1.0588501 v 1.8520833 h 1.5880167 c 0.4397375,0 0.79375,-0.3540125 0.79375,-0.79375 V 5.55625 Z M 4.7614666,7.4083333 V 8.7302164 H 5.8203167 V 7.4083333 Z"
           style="fill:#e6e6e6;stroke-width:0.264583"
           class="background" />
        <path
           id="path17278"
           d="M 5.2916668,1.3229167 1.3229167,3.9687501 V 5.0270834 L 5.2916668,2.38125 9.2604167,5.0270834 V 3.9687501 Z m -0.5291667,5.55625 c -0.2931581,0 -0.5291667,0.2360086 -0.5291667,0.5291667 V 9.2604167 H 6.3499997 V 7.4083334 c 0,-0.2931581 -0.2360081,-0.5291667 -0.5291662,-0.5291667 z"
           style="fill:#666666;stroke-width:0.264583"
           class="foreground" />
      </g>
    </g>
  </g>
  <g
     inkscape:groupmode="layer"
     id="layer2"
     inkscape:label="edition"
     style="display:none">
    <g
       inkscape:groupmode="layer"
       id="layer14"
       inkscape:label="edit-source"
       style="display:none">
      <rect
         id="fond-carre-2"
         width="30"
         height="30"
         x="5"
         y="5"
         rx="2.9765627"
         ry="2.976563"
         style="display:inline;fill:#e6e6e6;stroke-width:0.999993" />
      <path
         style="color:#000000;font-style:normal;font-variant:normal;font-weight:normal;font-stretch:normal;font-size:medium;line-height:normal;font-family:sans-serif;font-variant-ligatures:normal;font-variant-position:normal;font-variant-caps:normal;font-variant-numeric:normal;font-variant-alternates:normal;font-variant-east-asian:normal;font-feature-settings:normal;font-variation-settings:normal;text-indent:0;text-align:start;text-decoration:none;text-decoration-line:none;text-decoration-style:solid;text-decoration-color:#000000;letter-spacing:normal;word-spacing:normal;text-transform:none;writing-mode:lr-tb;direction:ltr;text-orientation:mixed;dominant-baseline:auto;baseline-shift:baseline;text-anchor:start;white-space:normal;shape-padding:0;shape-margin:0;inline-size:0;clip-rule:nonzero;display:inline;overflow:visible;visibility:visible;isolation:auto;mix-blend-mode:normal;color-interpolation:sRGB;color-interpolation-filters:linearRGB;solid-color:#000000;solid-opacity:1;vector-effect:none;fill:#666666;fill-opacity:1;fill-rule:nonzero;stroke:#ffffff;stroke-width:4;stroke-linecap:round;stroke-linejoin:round;stroke-miterlimit:4;stroke-dasharray:none;stroke-dashoffset:0;stroke-opacity:1;paint-order:markers stroke fill;color-rendering:auto;image-rendering:auto;shape-rendering:auto;text-rendering:auto;enable-background:accumulate;stop-color:#000000"
         d="m 35.214096,3.5878501 c -0.783395,-0.7837999 -2.05378,-0.7838006 -2.837174,8e-7 L 17.636175,18.33181 C 17.379541,18.587327 17.196853,18.907568 17.10748,19.258546 16.746493,21.437186 16,27 16,27 c 0,0 5.558927,-0.749333 7.739767,-1.107721 0.352215,-0.08703 0.674232,-0.267982 0.931767,-0.523577 L 39.412276,10.624743 c 0.783633,-0.7835679 0.783633,-2.0542306 -4e-6,-2.8377966 z"
         id="path17907"
         sodipodi:nodetypes="cccccccccc" />
    </g>
    <g
       inkscape:groupmode="layer"
       id="layer16"
       inkscape:label="edit-final"
       style="display:inline">
      <g
         id="g17959"
         transform="matrix(3.7795278,0,0,3.8000957,-5.2745748e-7,-0.016326)"
         style="stroke-width:0.263865">
        <path
           id="fond-carre-2-1"
           d="m 2.1104655,1.3200525 c -0.436302,0 -0.7875488,0.3493457 -0.7875488,0.7832862 v 6.3279655 c 0,0.4339405 0.3512468,0.7832863 0.7875488,0.7832863 h 6.3624022 c 0.436302,0 0.787549,-0.3493458 0.787549,-0.7832863 V 4.7065834 l -2.357995,2.3452329 a 0.52921796,0.52635355 0 0 1 -0.0021,0.00209 c -0.136046,0.1342902 -0.305863,0.2302619 -0.49196,0.276 a 0.52921796,0.52635355 0 0 1 -0.04134,0.00776 C 5.7645238,7.4360603 4.3046503,7.6305409 4.3046503,7.6305409 A 0.52921796,0.52635355 0 0 1 3.708821,7.0399927 c 0,0 0.1950517,-1.4528912 0.2950724,-2.0532995 a 0.52921796,0.52635355 0 0 1 0.00982,-0.044202 C 4.0607754,4.7586707 4.1578277,4.5908518 4.2927647,4.4567928 L 7.4450237,1.3200525 Z M 8.8459717,1.4166784 5.0431032,5.1984499 C 4.9823467,5.5701243 4.921674,6.0243558 4.8575848,6.4885079 5.3253086,6.4244365 5.7842355,6.3641416 6.1582807,6.303994 L 9.2604167,3.2171059 V 2.1033387 c 0,-0.2987084 -0.168398,-0.5544766 -0.414445,-0.6866603 z"
           class="background"
           style="fill:#e6e6e6" />
        <path
           d="m 9.3170626,0.94844352 c -0.2072735,-0.20625794 -0.5433958,-0.20625814 -0.750669,2e-7 L 4.6662379,4.8283353 C 4.5983369,4.895575 4.5500008,4.9798469 4.526354,5.0722072 4.430843,5.6455189 4.2333334,7.1093804 4.2333334,7.1093804 c 0,0 1.4707993,-0.1971878 2.0478133,-0.2914978 0.09319,-0.022902 0.1783905,-0.07052 0.2465298,-0.1377802 L 10.427831,2.8002109 c 0.207336,-0.2061969 0.207336,-0.5405734 -10e-7,-0.7467698 z"
           id="path17952"
           class="foreground"
           style="fill:#666666" />
      </g>
    </g>
  </g>
  <g
     inkscape:groupmode="layer"
     id="layer3"
     inkscape:label="publication"
     style="display:none">
    <g
       inkscape:groupmode="layer"
       id="layer11"
       inkscape:label="pub-source"
       style="display:none">
      <rect
         style="display:inline;fill:#e6e6e6;stroke:none;stroke-width:0.264583;stroke-linecap:round;stroke-opacity:0.08;paint-order:markers stroke fill"
         id="rect1012-7-5"
         width="29.791996"
         height="30"
         x="5"
         y="5"
         rx="2.9791999"
         ry="3.0000005" />
      <path
         style="display:inline;fill:none;fill-rule:evenodd;stroke:#666666;stroke-width:5;stroke-linecap:round;stroke-linejoin:round;stroke-miterlimit:4;stroke-dasharray:none;stroke-opacity:1"
         d="m 14.5,18.500042 9,8.000052 L 37.499999,12.5"
         id="path1056-2"
         sodipodi:nodetypes="ccc" />
    </g>
    <g
       inkscape:groupmode="layer"
       id="layer12"
       inkscape:label="pub-final"
       style="display:inline">
      <g
         id="g1089">
        <path
           id="rect1012-7-5-7"
           d="M 7.9785156,5 C 6.3280389,5 5,6.3379997 5,8 v 24 c 0,1.662 1.3280389,3 2.9785156,3 H 31.8125 c 1.650477,0 2.980469,-1.338 2.980469,-3 V 21.570312 l -8.111328,8.111329 c -1.670337,1.66999 -4.40364,1.751758 -6.169922,0.183593 a 2.0002,2.0002 0 0 0 0,-0.002 l -9,-8 c -1.8392502,-1.634857 -2.0112071,-4.511527 -0.376953,-6.351562 1.63467,-1.840389 4.513075,-2.011566 6.353515,-0.376953 a 2.0002,2.0002 0 0 0 0,0.002 l 5.830078,5.18164 11,-10.9999996 c 0.146044,-0.1461084 0.311724,-0.2671619 0.47461,-0.390625 V 8 c 0,-1.6620003 -1.329992,-3 -2.980469,-3 z M 34.792969,14.5 24.8125,24.480469 a 2.0002,2.0002 0 0 1 -2.742188,0.08008 L 14.832031,18.125 v 0.002 c -0.224171,-0.199097 -0.50597,-0.183149 -0.705078,0.04102 -0.199097,0.224171 -0.183149,0.50597 0.04102,0.705078 a 2.0002,2.0002 0 0 0 0,0.002 l 9,8 v -0.002 c 0.21263,0.188781 0.484467,0.181507 0.685547,-0.01953 L 34.792969,15.914062 Z"
           style="fill:#e6e6e6"
           class="background" />
        <path
           d="m 37.46875,10 c -0.652157,0.0083 -1.275248,0.271138 -1.736328,0.732422 L 23.398438,23.066406 16.160156,16.630859 c -1.032306,-0.916857 -2.612408,-0.823292 -3.529297,0.208985 -0.916857,1.032306 -0.823292,2.612408 0.208985,3.529297 l 9,8 c 0.989456,0.878472 2.492026,0.833952 3.427734,-0.101563 l 14,-14 c 0.976059,-0.976267 0.976059,-2.558889 0,-3.535156 C 38.791185,10.255825 38.142565,9.9917293 37.46875,10 Z"
           id="path1045"
           style="fill:#666666"
           class="foreground" />
      </g>
    </g>
  </g>
  <g
     inkscape:groupmode="layer"
     id="layer6"
     inkscape:label="activite"
     style="display:none">
    <g
       inkscape:groupmode="layer"
       id="layer18"
       inkscape:label="act-source"
       style="display:none">
      <path
         id="path5221"
         style="display:inline;fill:#e6e6e6;stroke:none;stroke-width:1.32293;stroke-miterlimit:4;stroke-dasharray:none;stroke-opacity:0.98802;paint-order:markers stroke fill"
         d="M 34.999994,31.999999 H 30.000039 L 26.000031,36 22.000023,31.999999 H 12.000005 C 10.338003,31.999999 9,30.662 9,29.000001 V 18 c 0,-1.662 1.338003,-3 3.000005,-3 H 34.999994 C 36.661997,15 38,16.338 38,18 v 11.000001 c 0,1.661999 -1.338003,2.999998 -3.000006,2.999998 z"
         sodipodi:nodetypes="scccssssssss" />
      <path
         id="rect5192-9"
         style="display:inline;fill:#666666;stroke:none;stroke-width:1.058;stroke-miterlimit:4;stroke-dasharray:none;stroke-opacity:0.98802;paint-order:markers stroke fill"
         d="M 5.0000048,21.999999 H 9.9999591 L 13.999968,26 17.999974,21.999999 h 10.000019 c 1.662003,0 3.000006,-1.338 3.000006,-3 V 7.9999996 C 30.999999,6.3379997 29.661996,5 27.999993,5 H 5.0000048 C 3.3380022,5 2,6.3379997 2,7.9999996 V 18.999999 c 0,1.662 1.3380022,3 3.0000048,3 z"
         sodipodi:nodetypes="scccssssssss" />
    </g>
    <g
       inkscape:groupmode="layer"
       id="layer19"
       inkscape:label="act-final"
       style="display:inline">
      <g
         id="g1085">
        <path
           id="path5221-3"
           d="m 12,15 c -1.662002,0 -3,1.338 -3,3 v 2 h 1.828125 L 14,23.171875 17.171875,20 H 28 c 0.588599,0 1,-0.411408 1,-1 v -4 z m 21,0 v 4 c 0,2.735408 -2.264593,5 -5,5 H 18.828125 L 14,28.828125 9.171875,24 H 9 v 5 c 0,1.661999 1.337998,3 3,3 h 10 l 4,4 4,-4 h 5 c 1.662003,0 3,-1.338001 3,-3 V 18 c 0,-1.662 -1.337997,-3 -3,-3 z"
           style="fill:#e6e6e6"
           class="background" />
        <path
           d="M 5.0000048,21.999999 H 9.9999591 L 13.999968,26 17.999974,21.999999 h 10.000019 c 1.662003,0 3.000006,-1.338 3.000006,-3 V 7.9999996 C 30.999999,6.3379997 29.661996,5 27.999993,5 H 5.0000048 C 3.3380022,5 2,6.3379997 2,7.9999996 V 18.999999 c 0,1.662 1.3380022,3 3.0000048,3 z"
           id="path1078"
           style="fill:#666666"
           class="foreground" />
      </g>
    </g>
  </g>
  <g
     inkscape:groupmode="layer"
     id="layer7"
     inkscape:label="squelette"
     style="display:none">
    <g
       inkscape:groupmode="layer"
       id="layer25"
       inkscape:label="squelette-source"
       style="display:none">
      <rect
         id="fond-carre-20"
         width="30"
         height="30.163256"
         x="5"
         y="5"
         rx="3.0000002"
         ry="3.016326"
         style="display:inline;fill:#e6e6e6;stroke-width:0.999993" />
      <path
         style="display:inline;fill:none;fill-rule:evenodd;stroke:#666666;stroke-width:4;stroke-linecap:round;stroke-linejoin:round;stroke-miterlimit:4;stroke-dasharray:none;stroke-opacity:1"
         d="M 14,26 18.999999,2"
         id="path8686-7"
         sodipodi:nodetypes="cc" />
      <path
         style="display:inline;fill:none;fill-rule:evenodd;stroke:#666666;stroke-width:4;stroke-linecap:round;stroke-linejoin:round;stroke-miterlimit:4;stroke-dasharray:none;stroke-opacity:1"
         d="M 3.9999994,26 8.9999992,2"
         id="path8720"
         sodipodi:nodetypes="cc" />
      <path
         style="display:inline;fill:none;fill-rule:evenodd;stroke:#666666;stroke-width:4;stroke-linecap:round;stroke-linejoin:round;stroke-miterlimit:4;stroke-dasharray:none;stroke-opacity:1"
         d="M 21.000001,18.999999 H 2.0000002"
         id="path8722"
         sodipodi:nodetypes="cc" />
      <path
         style="display:inline;fill:none;fill-rule:evenodd;stroke:#666666;stroke-width:4;stroke-linecap:round;stroke-linejoin:round;stroke-miterlimit:4;stroke-dasharray:none;stroke-opacity:1"
         d="M 20.999999,9.9999934 H 2"
         id="path8724"
         sodipodi:nodetypes="cc" />
    </g>
    <g
       inkscape:groupmode="layer"
       id="layer26"
       inkscape:label="squelette-final"
       style="display:inline">
      <g
         id="g1155">
        <path
           id="fond-carre-20-6"
           d="m 12.460938,5 -0.207032,1 h 1.826172 l 0.208984,-1 z m 10,0 -0.259766,1.2480469 C 23.802389,6.7719984 25,8.2388673 25,10 c 0,2.18545 -1.81455,4 -4,4 h -0.414062 l -0.208985,1 H 21 c 2.18545,0 4,1.81455 4,4 0,2.18545 -1.81455,4 -4,4 h -2.289062 l -0.796876,3.816406 a 2.0002,2.0002 0 0 0 0,0.002 c -0.446892,2.137978 -2.592111,3.542733 -4.730468,3.097657 a 2.0002,2.0002 0 0 0 -0.002,-0.002 c -2.137931,-0.446894 -3.5426855,-2.592112 -3.09761,-4.730469 a 2.0002,2.0002 0 0 0 0.002,0 L 10.541016,23 H 8.7109375 l -0.796875,3.816406 a 2.0002,2.0002 0 0 0 0,0.002 C 7.5968733,28.33582 6.4186059,29.468189 5,29.847656 v 2.298828 c 0,1.671045 1.3379999,3.017578 3,3.017578 h 24 c 1.662,0 3,-1.346533 3,-3.017578 V 8.015625 C 35,6.3445804 33.662,5 32,5 Z M 7.8320312,7.5976562 7.6640625,8.4082031 A 2.0002,2.0002 0 0 1 5.7070312,10 H 5 v 0.0039 a 2.0002,2.0002 0 0 1 1.8535156,2.28711 L 7,11.591797 A 2.0002,2.0002 0 0 1 8.9589844,10 H 9.7929688 A 2.0002,2.0002 0 0 1 7.8320312,7.5976562 Z m 9.9999998,0 -0.167969,0.8105469 A 2.0002,2.0002 0 0 1 15.707031,10 H 14.875 a 2.0002,2.0002 0 0 1 1.978516,2.291016 L 17,11.591797 A 2.0002,2.0002 0 0 1 18.958984,10 h 0.833985 A 2.0002,2.0002 0 0 1 17.832031,7.5976562 Z M 10.585938,14 10.378906,15 h 1.828125 l 0.208985,-1 z M 5.9570312,16.601562 5.7890625,17.408203 A 2.0002,2.0002 0 0 1 5,18.621094 v 2.582031 L 5.1269531,20.591797 A 2.0002,2.0002 0 0 1 7.0839844,19 H 7.9179688 A 2.0002,2.0002 0 0 1 5.9570312,16.601562 Z m 9.9824218,0.107422 -0.146484,0.699219 A 2.0002,2.0002 0 0 1 13.833984,19 H 13 a 2.0002,2.0002 0 0 1 1.958984,2.400391 l 0.167969,-0.808594 A 2.0002,2.0002 0 0 1 17.083984,19 h 0.833985 a 2.0002,2.0002 0 0 1 -1.978516,-2.291016 z"
           style="fill:#e6e6e6"
           class="background" />
        <path
           d="M 8.9355469,0 C 8.0129333,0.03025261 7.230881,0.68801592 7.0429688,1.5917969 L 5.7070312,8 H 2 c -1.1045695,0 -2,0.8954305 -2,2 0,1.104569 0.8954305,2 2,2 H 4.875 L 3.8320312,17 H 2 c -1.1045695,0 -2,0.895431 -2,2 0,1.104569 0.8954305,2 2,2 h 1 l -0.9570312,4.591797 c -0.2249453,1.080744 0.4682758,2.13937 1.5488281,2.365234 1.080744,0.224946 2.1393704,-0.468276 2.3652343,-1.548828 L 7.0839844,21 H 13 l -0.957031,4.591797 c -0.224945,1.080744 0.468276,2.13937 1.548828,2.365234 1.080744,0.224945 2.13937,-0.468276 2.365234,-1.548828 L 17.083984,21 H 21 c 1.104569,0 2,-0.895431 2,-2 0,-1.104569 -0.895431,-2 -2,-2 h -3.082031 l 1.041015,-5 H 21 c 1.104569,0 2,-0.895431 2,-2 C 23,8.8954305 22.104569,8 21,8 H 19.792969 L 20.957031,2.4082031 C 21.181977,1.3274591 20.488755,0.26883262 19.408203,0.04296875 19.291877,0.0181624 19.17357,0.0037825 19.054688,0 18.087322,-0.02596838 17.240132,0.64438096 17.042969,1.5917969 L 15.707031,8 H 9.7929688 L 10.957031,2.4082031 C 11.181977,1.3274591 10.488756,0.26883266 9.4082031,0.04296875 9.2918767,0.01816237 9.1735693,0.00378246 9.0546875,0 9.0149828,-0.00118314 8.9752516,-0.00118314 8.9355469,0 Z m 0.023437,12 H 14.875 l -1.041016,5 H 7.9179688 Z"
           id="path1148"
           style="fill:#666666"
           class="foreground" />
      </g>
    </g>
  </g>
  <g
     inkscape:groupmode="layer"
     id="layer9"
     inkscape:label="administration (maintenance)"
     style="display:none">
    <g
       inkscape:groupmode="layer"
       id="layer21"
       inkscape:label="admin-source"
       style="display:none">
      <rect
         id="fond-carre-8"
         width="30"
         height="30.163256"
         x="5"
         y="5"
         rx="3.0000002"
         ry="3.016326"
         style="display:inline;fill:#e6e6e6;stroke-width:0.999993" />
      <path
         style="display:inline;fill:none;fill-rule:evenodd;stroke:#666666;stroke-width:5;stroke-linecap:round;stroke-linejoin:round;stroke-miterlimit:4;stroke-dasharray:none;stroke-opacity:1"
         d="m 2.5,20.128163 h 9.747474 L 18.080807,34.75703 22.430562,5.4992953 28.263895,20.128163 H 37.5"
         id="path1056-2-2-5"
         sodipodi:nodetypes="cccccc" />
    </g>
    <g
       inkscape:groupmode="layer"
       id="layer22"
       inkscape:label="admin-final"
       style="display:inline">
      <g
         id="g1197">
        <path
           id="fond-carre-8-7"
           d="M 8,5 C 6.3379999,5 5,6.3379997 5,8 v 7.628906 h 7.248047 c 1.613654,1.12e-4 2.98273,0.966895 3.779297,2.335938 L 17.955078,5 Z M 22.439453,5 C 22.172085,4.994385 21.974998,5.1612798 21.935547,5.4257812 L 18.949219,25.517578 a 2.0002,2.0002 0 0 1 -3.835938,0.445313 l -2.40039,-6.019532 c -0.07808,-0.195818 -0.254033,-0.314438 -0.464844,-0.314453 H 5 v 1 h 5.552734 a 2.0002,2.0002 0 0 1 1.857422,1.259766 l 5.205078,13.052734 c 0.01042,0.02609 0.02099,0.03633 0.03125,0.05859 h 0.884766 c 0.01625,-0.04873 0.03207,-0.09681 0.04297,-0.169922 l 2.98828,-20.08984 a 2.0002,2.0002 0 0 1 3.835938,-0.445312 l 2.40039,6.019531 c 0.07808,0.195819 0.254033,0.314439 0.464844,0.314453 H 35 v -1 H 29.958984 A 2.0002,2.0002 0 0 1 28.101562,18.369141 L 22.894531,5.3144531 C 22.8181,5.1226326 22.645893,5.00439 22.439453,5 Z m 4.634766,0 4.240234,10.628906 H 35 V 8 C 35,6.3379997 33.662,5 32,5 Z M 24.484375,22.291016 22.59375,35 H 32 c 1.662,0 3,-1.338 3,-3 v -7.371094 h -6.736328 c -1.614184,-1.1e-4 -2.982917,-0.968073 -3.779297,-2.33789 z M 5,24.628906 V 32 c 0,1.662 1.3379999,3 3,3 h 5.332031 L 9.1972656,24.628906 Z"
           style="fill:#e6e6e6"
           class="background" />
        <path
           d="M 22.482422,3.0005592 C 21.224345,2.9741382 20.142665,3.8868316 19.957031,5.1314186 L 16.970703,25.223215 14.570312,19.203684 C 14.191308,18.253161 13.271345,17.629536 12.248047,17.629465 H 2.5 c -1.3807119,0 -2.5,1.119288 -2.5,2.5 0,1.380712 1.1192881,2.5 2.5,2.5 h 8.052734 l 5.205078,13.054688 c 0.946495,2.370406 4.41867,1.965908 4.794922,-0.558594 l 2.988282,-20.089844 2.40039,6.019532 c 0.379005,0.950523 1.298968,1.574148 2.322266,1.574218 H 37.5 c 1.380712,0 2.5,-1.119288 2.5,-2.5 0,-1.380712 -1.119288,-2.5 -2.5,-2.5 H 29.958984 L 24.751953,4.574778 C 24.380237,3.6418745 23.486427,3.0218997 22.482422,3.0005592 Z"
           id="path1190"
           style="fill:#666666"
           class="foreground" />
      </g>
    </g>
  </g>
  <g
     inkscape:groupmode="layer"
     id="layer4"
     inkscape:label="configuration"
     style="display:none">
    <g
       inkscape:groupmode="layer"
       id="g15085"
       inkscape:label="config-source"
       style="display:none">
      <rect
         id="rect15079"
         width="30"
         height="30"
         x="-35"
         y="-35.000004"
         rx="3.0000002"
         ry="3.0000005"
         style="display:inline;fill:#e6e6e6;stroke-width:0.999993"
         transform="scale(-1)" />
      <path
         d="m 24.503017,29.999916 c 0.416503,0 0.529538,-0.0083 0.529538,-0.0083 a 0.95622456,0.95979138 0 0 0 0.830968,-0.745127 l 0.34216,-1.901184 c 0.06823,-0.383304 0.435851,-0.770695 0.812639,-0.8586 l 1.607966,-0.490627 c 0.361516,-0.139013 0.875776,-0.01939 1.140546,0.265756 l 1.303479,1.403414 a 0.90428903,0.9076622 0 0 0 1.083518,0.150255 l 0.903271,-0.605106 c 0.312634,-0.231006 0.449089,-0.714478 0.300415,-1.073251 l -0.745428,-1.80919 c -0.148682,-0.359788 -0.05295,-0.889264 0.212836,-1.174442 l 0.979643,-1.202039 c 0.227089,-0.316863 0.720986,-0.495738 1.098792,-0.398636 l 1.843198,0.470186 a 0.8991973,0.9025514 0 0 0 0.987793,-0.464053 l 0.450108,-1.070182 a 0.95927952,0.96285779 0 0 0 -0.334012,-1.068129 l -1.617129,-1.128444 c -0.318744,-0.221808 -0.525465,-0.71959 -0.458254,-1.103914 0,0 0.172099,-0.993522 0.172099,-1.880742 v -0.05111 c -0.004,-0.05725 0.297359,-0.206468 0.666,-0.330151 l 1.802458,-0.603065 a 0.89716064,0.90050714 0 0 0 0.580458,-0.928105 l -0.210797,-1.233725 c -0.08453,-0.380232 -0.470478,-0.705277 -0.859483,-0.718566 l -1.972531,-0.06951 c -0.387989,-0.0143 -0.831987,-0.318913 -0.986775,-0.676655 L 34.477687,9.706264 C 34.2842,9.368999 34.324931,8.844641 34.569341,8.5410644 l 1.197575,-1.4974369 a 0.90428903,0.9076622 0 0 0 -0.0082,-1.0988022 L 34.865676,4.9574359 C 34.591738,4.6814561 34.092753,4.6180868 33.758736,4.8174037 L 32.064209,5.8252342 C 31.729175,6.0245519 31.193524,6.0051337 30.874784,5.7843557 L 30.08863,5.2988361 C 29.747486,5.1097412 29.504101,4.6395546 29.545853,4.2521633 l 0.204686,-1.924702 c 0.04073,-0.3884174 -0.22607,-0.8054471 -0.594712,-0.9301481 l -1.3269,-0.3771525 a 0.93993103,0.94343708 0 0 0 -1.00205,0.4732644 l -0.875775,1.7509375 c -0.173119,0.3485489 -0.631374,0.6102158 -1.019362,0.5805749 0,0 -0.04786,-0.00409 -0.429743,-0.00409 -0.38391,0 -0.429744,0.00409 -0.429744,0.00409 -0.386972,0.029496 -0.849298,-0.2320318 -1.022417,-0.5805749 L 22.177115,1.4934295 C 22.001962,1.1448794 21.549816,0.93125189 21.17201,1.0201652 L 19.848168,1.3982853 A 0.92261925,0.92606074 0 0 0 19.2504,2.3284864 l 0.207744,1.9236716 c 0.04073,0.3884075 -0.203666,0.8585996 -0.543795,1.0466728 l -0.785144,0.4844959 c -0.319764,0.2218029 -0.855408,0.2412324 -1.189424,0.0419 L 15.243218,4.8173898 a 0.95622456,0.95979138 0 0 0 -1.10592,0.1400359 l -0.895124,0.9873996 a 0.90734407,0.91072858 0 0 0 -0.0061,1.1008465 l 1.199636,1.4943716 c 0.244404,0.3045999 0.285136,0.8299796 0.09164,1.1683096 l -0.488859,0.98841 c -0.155811,0.357753 -0.600826,0.662349 -0.989833,0.676658 l -1.972528,0.0695 a 0.96437119,0.96796858 0 0 0 -0.859483,0.718566 l -0.212838,1.233727 a 0.8991973,0.9025514 0 0 0 0.582493,0.929128 l 1.802468,0.603063 c 0.368644,0.122659 0.669052,0.271886 0.665996,0.329134 v 0.05111 c 0,0.888242 0.17312,1.880742 0.17312,1.880742 0.0672,0.384325 -0.139516,0.882105 -0.459273,1.10391 l -1.6171,1.128446 a 0.96233458,0.96592428 0 0 0 -0.334015,1.070183 l 0.451125,1.068137 a 0.89817899,0.90152929 0 0 0 0.988812,0.465074 l 1.842184,-0.471208 c 0.376785,-0.0971 0.870684,0.08177 1.097774,0.398635 l 0.980664,1.20204 c 0.26579,0.285178 0.361509,0.814646 0.212839,1.174441 l -0.74645,1.806127 a 0.9511329,0.95468077 0 0 0 0.300412,1.076313 l 0.90327,0.60511 a 0.90530737,0.90868431 0 0 0 1.083518,-0.150257 l 1.303479,-1.403401 c 0.264764,-0.285177 0.776996,-0.404768 1.139527,-0.265752 l 1.608983,0.489606 c 0.378823,0.08892 0.74339,0.476317 0.813656,0.860642 l 0.34216,1.901184 a 0.95520621,0.95876928 0 0 0 0.83097,0.744119 c 0,0 0.114053,0.0083 0.531575,0.0083 z m -0.0021,-12.603011 a 2.0814941,2.0892583 0 0 1 -0.402246,-0.04089 l -0.03772,-0.0072 a 2.0814941,2.0892583 0 0 1 -0.357437,-0.112436 2.0814941,2.0892583 0 0 1 -0.02033,-0.0083 2.0814941,2.0892583 0 0 1 -0.336053,-0.183985 l -0.004,-9.95e-4 a 2.0814941,2.0892583 0 0 1 -0.01425,-0.01029 2.0814941,2.0892583 0 0 1 -0.294302,-0.245308 2.0814941,2.0892583 0 0 1 -0.0082,-0.0061 2.0814941,2.0892583 0 0 1 -0.242367,-0.29642 2.0814941,2.0892583 0 0 1 -0.0082,-0.01029 l -0.0061,-0.0093 a 2.0814941,2.0892583 0 0 1 -0.183305,-0.337311 2.0814941,2.0892583 0 0 1 -0.0082,-0.01831 2.0814941,2.0892583 0 0 1 -0.115078,-0.381259 2.0814941,2.0892583 0 0 1 -0.04375,-0.421121 2.0814941,2.0892583 0 0 1 0.04375,-0.421123 2.0814941,2.0892583 0 0 1 0.112017,-0.367971 l 0.01527,-0.03887 a 2.0814941,2.0892583 0 0 1 0.0041,-0.0083 2.0814941,2.0892583 0 0 1 0.181264,-0.331173 2.0814941,2.0892583 0 0 1 0.254594,-0.309709 2.0814941,2.0892583 0 0 1 0.295322,-0.247355 2.0814941,2.0892583 0 0 1 0.02033,-0.01429 2.0814941,2.0892583 0 0 1 0.340125,-0.183982 2.0814941,2.0892583 0 0 1 0.0082,-0.0031 l 0.0061,-0.002 a 2.0814941,2.0892583 0 0 1 0.376789,-0.116529 2.0814941,2.0892583 0 0 1 0.0031,-0.002 h 0.0082 a 2.0814941,2.0892583 0 0 1 0.412435,-0.0439 2.0814941,2.0892583 0 0 1 0.411413,0.0439 2.0814941,2.0892583 0 0 1 0.0082,0 l 0.0071,0.002 a 2.0814941,2.0892583 0 0 1 0.372714,0.116529 l 0.02033,0.0072 a 2.0814941,2.0892583 0 0 1 0.343254,0.188094 2.0814941,2.0892583 0 0 1 0.304482,0.253488 l 0.0082,0.0061 a 2.0814941,2.0892583 0 0 1 0.24646,0.301533 l 0.0061,0.0083 a 2.0814941,2.0892583 0 0 1 0.186354,0.347528 l 0.0041,0.0072 a 2.0814941,2.0892583 0 0 1 0.002,0.0061 2.0814941,2.0892583 0 0 1 0.116087,0.37819 c 0,0.0031 0,0.0061 0.002,0.01029 a 2.0814941,2.0892583 0 0 1 0.04374,0.413983 2.0814941,2.0892583 0 0 1 -0.04174,0.411923 l -0.0041,0.01743 a 2.0814941,2.0892583 0 0 1 -0.11812,0.378195 l -0.0031,0.01029 a 2.0814941,2.0892583 0 0 1 -0.183305,0.340373 2.0814941,2.0892583 0 0 1 -0.002,0.0041 l -0.01217,0.01429 a 2.0814941,2.0892583 0 0 1 -0.236174,0.28927 l -0.02241,0.02144 a 2.0814941,2.0892583 0 0 1 -0.295322,0.24428 2.0814941,2.0892583 0 0 1 -0.346239,0.189093 2.0814941,2.0892583 0 0 1 -0.0082,0.0041 l -0.0041,0.0021 a 2.0814941,2.0892583 0 0 1 -0.0061,0.002 2.0814941,2.0892583 0 0 1 -0.366599,0.114477 l -0.03062,0.005 a 2.0814941,2.0892583 0 0 1 -0.402246,0.04089 z"
         class="foreground"
         id="path15081"
         style="fill:#666666;stroke:none;stroke-width:1.05833;stroke-miterlimit:4;stroke-dasharray:none;stroke-opacity:1;paint-order:markers stroke fill" />
    </g>
    <g
       inkscape:groupmode="layer"
       id="layer30"
       inkscape:label="config-final"
       style="display:inline">
      <g
         id="g1234">
        <path
           id="rect15079-9"
           d="M 8,5 C 6.3379999,5 5,6.3379997 5,8 v 24 c 0,1.662 1.3379999,3 3,3 h 24 c 1.662,0 3,-1.338 3,-3 v -3.951172 c -0.193454,0.280119 -0.442377,0.539342 -0.753906,0.769531 l -0.03711,0.02734 -1.005859,0.673828 -0.06641,0.03711 c -1.129091,0.63722 -2.571546,0.436368 -3.484375,-0.482422 l -0.02539,-0.02344 -0.917969,-0.988281 -0.634765,0.193359 -0.25,1.384766 -0.0078,0.04102 c -0.273171,1.227971 -1.313149,2.163296 -2.568359,2.298828 l -0.03516,0.0039 -0.0332,0.002 c -1e-6,0 -0.254306,0.0081 -0.535157,0.01172 L 24.623047,32 h -0.119141 -0.002 c -0.444027,0 -0.675781,-0.01367 -0.675781,-0.01367 l -0.03516,-0.002 -0.0332,-0.0039 C 22.502194,31.846178 21.461145,30.909783 21.1875,29.681641 l -0.0098,-0.03906 -0.25,-1.386719 -0.634765,-0.193359 -0.919922,0.988281 -0.02344,0.02539 c -0.912681,0.917077 -2.353937,1.118025 -3.482421,0.482422 l -0.06836,-0.03906 -1.037109,-0.693359 -0.06445,-0.05273 c -0.988871,-0.790026 -1.366052,-2.139882 -0.931641,-3.326172 l 0.01563,-0.03906 0.556641,-1.345703 -0.341797,-0.417969 -1.277344,0.326172 -0.0332,0.0078 c -1.272613,0.279207 -2.596167,-0.346346 -3.1933595,-1.5 l -0.035156,-0.07031 -0.515625,-1.216797 -0.025391,-0.08203 c -0.3885292,-1.193678 0.023734,-2.52036 1.0253906,-3.28125 l 0.033203,-0.02344 1.2304689,-0.859376 c -0.01115,-0.07041 -0.01546,-0.214391 -0.0293,-0.314453 l -1.2558594,-0.419921 -0.03125,-0.01172 C 8.6670577,15.744103 7.8927121,14.506593 8.0117188,13.212891 l 0.00781,-0.08008 0.2402344,-1.396484 0.021484,-0.08203 C 8.5997813,10.440833 9.6684737,9.5449533 10.923828,9.4492188 l 0.04102,-0.00391 1.488281,-0.052734 0.03906,-0.078125 -0.837891,-1.0429687 -0.01953,-0.029297 C 10.924404,7.2913729 10.880465,6.0013878 11.482422,5 Z M 21.367188,5 C 21.241225,5.8724937 20.785176,6.5498693 19.882812,7.0488281 L 19.964844,7 l -0.785156,0.4863281 0.08984,-0.060547 c -1.060532,0.7356336 -2.039771,0.756928 -3.134765,0.1835938 0.656247,0.9916402 0.758362,1.9911653 0.128906,3.0917971 l 0.05664,-0.105469 -0.488281,0.988281 0.04102,-0.08789 c -0.476537,1.094163 -1.237801,1.587281 -2.318359,1.75 0.06274,0.02781 0.130059,0.0468 0.193359,0.07813 0.119283,0.05904 0.235614,0.116216 0.419922,0.248047 0.09215,0.06591 0.203396,0.141359 0.375,0.335937 0.171603,0.194578 0.557865,0.553974 0.509765,1.455078 l 0.002,-0.05469 c 0,0.628373 0.142578,1.535156 0.142578,1.535156 0.209712,1.199373 -0.165438,2.046705 -1.017578,2.779297 1.05971,-0.09815 1.954221,0.203579 2.642578,1.164062 l -0.07422,-0.09961 0.980469,1.201172 -0.08789,-0.09961 c 0.799962,0.858315 0.938501,1.74813 0.675781,2.767579 0.816372,-0.612968 1.699529,-0.839535 2.773438,-0.427735 l -0.132813,-0.04687 1.609375,0.490235 -0.125,-0.0332 c 1.118585,0.262563 1.7155,0.927849 2.060547,1.876954 0.344661,-0.955047 0.942689,-1.615701 2.0625,-1.876954 l -0.128906,0.03516 1.607422,-0.490235 -0.134766,0.04492 c 1.078118,-0.414566 1.960061,-0.187388 2.777344,0.427735 -0.252314,-0.979201 -0.128776,-1.83907 0.589844,-2.666016 l 0.978515,-1.203125 -0.07422,0.09961 c 0.688651,-0.960892 1.583091,-1.262082 2.642578,-1.164062 -0.850997,-0.732284 -1.22602,-1.577345 -1.017578,-2.775391 v -0.002 c 0,0 0,-0.002 0,-0.002 7.12e-4,-0.0046 0.142578,-0.910103 0.142578,-1.537109 v -0.05078 l 0.0039,0.140625 c -0.06346,-0.90822 0.330466,-1.284245 0.503906,-1.482422 0.17344,-0.198175 0.284243,-0.275356 0.376953,-0.341796 0.07424,-0.05321 0.111441,-0.0659 0.167969,-0.09961 v -0.339844 c -0.83958,-0.228547 -1.465508,-0.709714 -1.869141,-1.642578 l 0.04297,0.0918 -0.490234,-0.990234 0.05859,0.109375 c -0.63125,-1.1001838 -0.528038,-2.1007434 0.12887,-3.09172 -1.0953,0.5741506 -2.070995,0.5551895 -3.134766,-0.1816406 l 0.08789,0.058594 L 29.037109,7 29.119139,7.048828 C 28.219849,6.5503541 27.761248,5.8725096 27.634766,5 h -0.544922 c -0.573333,0.6127693 -1.319136,0.8940996 -2.310547,0.8183594 h -0.0098 -0.0078 c 0,0 0.107837,0.00195 -0.259766,0.00195 -0.369705,0 -0.251953,-0.00391 -0.251953,-0.00391 l -0.01367,0.00195 h -0.01172 C 23.230707,5.8941172 22.485036,5.6152449 21.910156,5 Z m 3.121093,6.216797 h 0.01367 0.01172 c 0.141698,9e-4 0.281217,0.02929 0.421875,0.04492 h 0.263672 l 0.271484,0.07617 -0.128906,-0.03125 c 0.250603,0.0531 0.496242,0.129435 0.732422,0.228515 l -0.105469,-0.04101 0.08203,0.0293 0.0625,0.02734 c 0.235619,0.101566 0.459566,0.225349 0.671875,0.369141 l 0.0039,0.002 0.002,0.002 c 0.214302,0.146296 0.414952,0.311662 0.597656,0.496094 l -0.226563,-0.197266 0.13086,0.09766 0.107422,0.109376 c 0.178936,0.181358 0.340329,0.378473 0.482421,0.589843 l 0.01172,0.01758 c 0.142673,0.214645 0.265405,0.442145 0.365235,0.679688 l -0.105469,-0.214844 0.101562,0.181641 0.0625,0.189453 -0.04883,-0.132813 c 0.05043,0.121849 0.07683,0.250966 0.115235,0.376954 l 0.06445,0.132812 0.04687,0.228516 0.002,0.0078 v 0.0039 l 0.03906,0.189454 v 0.173828 c 0.01691,0.147219 0.04601,0.293042 0.04687,0.441406 v 0.0098 0.0078 c -5.7e-4,0.270308 -0.02835,0.539741 -0.08203,0.804688 l -0.0059,0.0293 -0.002,0.0039 c -0.05344,0.253138 -0.130309,0.499687 -0.230469,0.738281 l 0.07031,-0.197266 -0.0332,0.115235 -0.04297,0.09961 c -0.09871,0.2325 -0.219529,0.455595 -0.359374,0.666016 l 0.132812,-0.232422 c -0.0013,0.0027 -0.0026,0.0071 -0.0039,0.0098 l -0.109375,0.22461 -0.175781,0.207031 0.132812,-0.175781 c -0.136899,0.202198 -0.292106,0.39178 -0.462891,0.566406 l -0.02344,0.02344 -0.01758,0.01758 c -0.177805,0.177015 -0.370836,0.337024 -0.578125,0.478515 l -0.0039,0.002 -0.0039,0.002 c -0.214135,0.144888 -0.440019,0.269235 -0.677734,0.371094 l 0.09375,-0.04297 -0.121094,0.0625 -0.06836,0.02344 -0.105469,0.292969 -1.398438,-0.0059 h -0.01367 c -0.265367,-9.8e-4 -0.530898,-0.02764 -0.791016,-0.08008 l -0.04297,-0.0078 -0.02539,-0.0059 c -0.240132,-0.05228 -0.474392,-0.126123 -0.701172,-0.220703 -0.0053,-0.0022 -0.01032,-0.0037 -0.01563,-0.0059 l -0.01563,-0.0059 -0.01367,-0.0078 c -0.0844,-0.03654 -0.160538,-0.08874 -0.242188,-0.130859 l -0.15625,-0.03906 -0.294922,-0.21289 C 21.988623,18.537562 21.796208,18.376934 21.619128,18.19932 l 0.226562,0.195312 c -0.0054,-0.004 -0.01228,-0.0077 -0.01758,-0.01172 l -0.121094,-0.08984 -0.105469,-0.109375 c -0.175663,-0.178542 -0.334551,-0.372522 -0.474609,-0.580078 l 0.09766,0.132812 c -0.0054,-0.0067 -0.01228,-0.01283 -0.01758,-0.01953 l -0.05469,-0.07031 -0.04492,-0.06836 C 20.967897,17.36961 20.847087,17.14841 20.748047,16.917969 l -0.0098,-0.02539 -0.01172,-0.02539 c -0.09825,-0.240148 -0.173469,-0.489814 -0.224609,-0.744141 0,0 0,-0.002 0,-0.002 -0.05434,-0.266341 -0.08138,-0.536762 -0.08203,-0.808594 v -0.0059 -0.0039 c 6.5e-4,-0.275799 0.02805,-0.550226 0.08398,-0.820312 0.05036,-0.243923 0.123027,-0.484065 0.216797,-0.714844 8e-4,-0.0019 0.0012,-0.004 0.002,-0.0059 l 0.03711,-0.08789 c 0,0 0,-0.002 0,-0.002 0.09828,-0.225597 0.218279,-0.442118 0.355468,-0.646484 v -0.002 c 0.146312,-0.217627 0.314725,-0.419765 0.5,-0.605469 0.176187,-0.177134 0.368602,-0.3384 0.574219,-0.480469 0.0054,-0.0038 0.01012,-0.0079 0.01563,-0.01172 l 0.01563,-0.0098 0.01367,-0.0098 c 0.210716,-0.140768 0.434765,-0.261988 0.667969,-0.361328 l 0.0293,-0.01172 0.0059,-0.0039 0.03711,-0.01367 c 0.0054,-0.0021 0.01022,-0.0039 0.01563,-0.0059 l 0.04102,-0.01563 0.04687,-0.01563 -0.146484,0.05469 c 0.08531,-0.03557 0.176221,-0.05236 0.263671,-0.08203 L 23.4903,11.261395 h 0.576172 c 0.141008,-0.01563 0.279827,-0.04409 0.421875,-0.04492 z m 0.04883,3.666015 0.0332,0.320313 -0.01562,0.002 0.0039,0.0059 0.01172,0.002 0.002,0.02148 -0.0039,-0.002 0.002,0.0059 0.0039,0.002 v 0.0039 0.0039 0.0098 l 0.0059,0.0039 0.002,0.002 0.01172,0.0098 0.01758,0.01758 0.01367,-0.01953 c -6e-4,-0.0037 -0.0014,-0.0062 -0.002,-0.0098 h 0.0039 0.0059 l 0.01172,-0.01367 -0.02539,-0.0039 c -0.0013,-0.0092 -0.0047,-0.01659 -0.0059,-0.02539 l 0.05078,0.0078 0.04492,-0.05273 -0.101562,0.02148 c -0.01321,-0.103108 -0.07031,-0.3114 -0.07031,-0.3125 z m 0.171875,0.291016 -0.03516,0.05273 0.03906,0.0059 0.134765,-0.08789 z m -0.160156,0.0332 -0.0078,0.002 h 0.0078 z m -0.04102,0.0098 c -0.0019,2e-4 -0.004,0.0017 -0.0059,0.002 -0.0014,-2.86e-4 -0.0025,2.07e-4 -0.0039,0 0,0 -0.002,0 -0.002,0 l -0.01172,0.002 c -0.0047,0.001 -0.0092,0.002 -0.01367,0.0039 h -0.002 -0.002 v 0.002 h -0.002 l -0.02148,0.0039 -0.002,0.0059 h -0.002 l 0.0039,-0.0059 -0.08789,0.01758 -0.0293,0.0078 0.0098,0.0059 h 0.0293 0.0098 l 0.02148,-0.0078 0.04297,-0.01563 -0.0039,0.01563 -0.0039,0.0078 c -0.0013,0.0024 -0.0028,0.0052 -0.0039,0.0078 v 0.0039 c -0.0022,0.0053 -0.0047,0.01178 -0.0059,0.01758 v 0.002 c -7e-4,0.0032 -0.0016,0.0065 -0.002,0.0098 10e-5,0.0066 6.53e-4,0.01313 0.002,0.01953 v 0.0059 l 0.002,0.0078 v 0.002 c 5e-4,0.0022 0.0013,0.0038 0.002,0.0059 l 0.002,0.002 0.002,0.002 c 5.6e-4,0.001 -5.92e-4,0.003 0,0.0039 0,0 0.002,0.002 0.002,0.002 l 0.0059,0.0078 0.0039,0.0059 v 0.002 h 0.002 l 0.002,0.002 0.0059,0.0039 c 0.001,0.0011 0.0028,9.87e-4 0.0039,0.002 l 0.0078,0.0078 h 0.002 c 0.0025,0.0018 0.0052,0.0045 0.0078,0.0059 h 0.0039 v 0.002 h 0.002 0.0059 l 0.0098,0.002 c 0.002,4.04e-4 0.0039,-2.36e-4 0.0059,0 0.0027,-2.41e-4 0.0051,5.38e-4 0.0078,0 l 0.01758,-0.002 0.0039,-0.002 h 0.002 l 0.0059,-0.0039 c 0.0041,-0.0028 0.008,-0.0061 0.01172,-0.0098 l 0.01367,-0.01367 0.01172,-0.01758 0.002,-0.002 v -0.002 c 0.0023,-0.0054 0.0026,-0.01168 0.0039,-0.01758 l 0.002,-0.01172 h 0.002 c -10e-5,-0.0014 1.62e-4,-0.0025 0,-0.0039 l 0.0059,0.01563 0.0039,-0.0059 -0.0078,-0.01758 -0.0078,-0.02148 v 0.0078 c -9e-4,-0.0039 -6.53e-4,-0.008 -0.002,-0.01172 v -0.002 l -0.002,-0.0039 -0.002,-0.002 c -6e-4,-0.0014 -0.0013,-0.0026 -0.002,-0.0039 v -0.002 c 0,0 -0.002,0 -0.002,0 -0.0013,-0.0026 -0.0024,-0.0054 -0.0039,-0.0078 l -0.002,-0.002 c -0.0013,-0.002 -0.0025,-0.0041 -0.0039,-0.0059 -0.002,-0.0025 -0.0037,-0.0056 -0.0059,-0.0078 l 0.01367,0.01172 -0.0059,-0.01172 -0.01758,-0.0078 -0.0039,-0.002 c 0,0 0,-0.002 0,-0.002 0,0 -0.002,0 -0.002,0 l -0.002,-0.002 h -0.0078 c 0,0 -0.002,-0.002 -0.002,-0.002 -0.0037,-0.0014 -0.0079,-0.0031 -0.01172,-0.0039 z m 0.03125,0.0098 0.02148,0.0078 -0.002,-0.0039 z m -0.09961,0.01172 -0.04102,0.01758 -0.01758,0.0059 h 0.04883 z m 0.21875,0.01367 -0.0078,0.0098 h 0.01953 l 0.0098,-0.0059 z m -0.345703,0.0059 -0.01758,0.0039 h 0.02344 z m 0.273438,0.01563 0.0039,0.0098 v 0.002 l 0.0078,0.01367 0.0039,0.0078 0.0059,-0.0098 -0.01563,-0.01758 z m 0.04492,0.01953 -0.0059,0.0078 0.0078,0.0078 c -0.001,-0.006 -0.001,-0.0097 -0.002,-0.01563 z m -0.01172,0.01563 -0.0078,0.01172 -0.002,0.0059 0.01172,0.02734 0.02148,-0.0059 c -0.0016,-0.009 -0.0044,-0.01268 -0.0059,-0.02148 z m 0.06055,0.02539 -0.01172,0.0059 0.01172,-0.0039 z m -0.07813,0.002 -0.0059,0.0078 0.0059,0.01563 h 0.002 l 0.0078,-0.002 z m 0.04102,0.01367 -0.01953,0.0078 0.04297,0.0957 c -0.01008,-0.04566 -0.01584,-0.06069 -0.02344,-0.103516 z m -0.0293,0.01367 -0.0098,0.002 0.0039,0.01172 0.126953,0.378906 c -0.05399,-0.113093 -0.03721,-0.162143 -0.06641,-0.291015 l -0.04883,-0.08789 z m -0.171875,0.216797 -0.0078,0.01172 h 0.002 z m 1.628906,3.501953 c -0.01773,0.0074 -0.03686,0.01048 -0.05469,0.01758 l -0.002,0.0039 z M 35,23.650391 34.666016,24.060547 35,24.873047 Z"
           style="fill:#e6e6e6"
           class="background" />
        <path
           d="m 24.503017,29.999916 c 0.416503,0 0.529538,-0.0083 0.529538,-0.0083 0.407445,-0.04399 0.741665,-0.343688 0.830968,-0.745127 l 0.34216,-1.901184 c 0.06823,-0.383304 0.435851,-0.770695 0.812639,-0.8586 l 1.607966,-0.490627 c 0.361516,-0.139013 0.875776,-0.01939 1.140546,0.265756 l 1.303479,1.403414 c 0.286636,0.288508 0.729684,0.349947 1.083518,0.150255 l 0.903271,-0.605106 c 0.312634,-0.231006 0.449089,-0.714478 0.300415,-1.073251 l -0.745428,-1.80919 c -0.148682,-0.359788 -0.05295,-0.889264 0.212836,-1.174442 l 0.979643,-1.202039 c 0.227089,-0.316863 0.720986,-0.495738 1.098792,-0.398636 l 1.843198,0.470186 c 0.395811,0.08627 0.800234,-0.103721 0.987793,-0.464053 l 0.450108,-1.070182 c 0.127505,-0.391103 -0.0067,-0.82031 -0.334012,-1.068129 l -1.617129,-1.128444 c -0.318744,-0.221808 -0.525465,-0.71959 -0.458254,-1.103914 0,0 0.172099,-0.993522 0.172099,-1.880742 v -0.05111 c -0.004,-0.05725 0.297359,-0.206468 0.666,-0.330151 l 1.802458,-0.603065 c 0.380336,-0.142003 0.618355,-0.522575 0.580458,-0.928105 l -0.210797,-1.233725 c -0.08453,-0.380232 -0.470478,-0.705277 -0.859483,-0.718566 l -1.972531,-0.06951 c -0.387989,-0.0143 -0.831987,-0.318913 -0.986775,-0.676655 L 34.477687,9.706264 C 34.2842,9.368999 34.324931,8.844641 34.569341,8.5410644 L 35.766916,7.0436275 C 36.010465,6.7171157 36.00711,6.2676384 35.758716,5.9448253 L 34.865676,4.9574359 C 34.591738,4.6814561 34.092753,4.6180868 33.758736,4.8174037 L 32.064209,5.8252342 C 31.729175,6.0245519 31.193524,6.0051337 30.874784,5.7843557 L 30.08863,5.2988361 C 29.747486,5.1097412 29.504101,4.6395546 29.545853,4.2521633 l 0.204686,-1.924702 c 0.04073,-0.3884174 -0.22607,-0.8054471 -0.594712,-0.9301481 l -1.3269,-0.3771525 c -0.400976,-0.0774654 -0.805911,0.1137842 -1.00205,0.4732644 l -0.875775,1.7509375 c -0.173119,0.3485489 -0.631374,0.6102158 -1.019362,0.5805749 0,0 -0.04786,-0.00409 -0.429743,-0.00409 -0.38391,0 -0.429744,0.00409 -0.429744,0.00409 -0.386972,0.029496 -0.849298,-0.2320318 -1.022417,-0.5805749 L 22.177115,1.4934295 C 22.001962,1.1448794 21.549816,0.93125189 21.17201,1.0201652 L 19.848168,1.3982853 C 19.465899,1.5415555 19.222796,1.9198542 19.2504,2.3284864 l 0.207744,1.9236716 c 0.04073,0.3884075 -0.203666,0.8585996 -0.543795,1.0466728 l -0.785144,0.4844959 c -0.319764,0.2218029 -0.855408,0.2412324 -1.189424,0.0419 L 15.243218,4.8173898 c -0.36043,-0.1961147 -0.805307,-0.1397826 -1.10592,0.1400359 l -0.895124,0.9873996 c -0.24776,0.3240529 -0.250254,0.7740475 -0.0061,1.1008465 l 1.199636,1.4943716 c 0.244404,0.3045999 0.285136,0.8299796 0.09164,1.1683096 l -0.488859,0.98841 c -0.155811,0.357753 -0.600826,0.662349 -0.989833,0.676658 l -1.972528,0.0695 c -0.409762,0.03125 -0.754782,0.319702 -0.859483,0.718566 l -0.212838,1.233727 c -0.037371,0.406256 0.201427,0.787161 0.582493,0.929128 l 1.802468,0.603063 c 0.368644,0.122659 0.669052,0.271886 0.665996,0.329134 v 0.05111 c 0,0.888242 0.17312,1.880742 0.17312,1.880742 0.0672,0.384325 -0.139516,0.882105 -0.459273,1.10391 l -1.6171,1.128446 c -0.327379,0.248687 -0.461516,0.678462 -0.334015,1.070183 l 0.451125,1.068137 c 0.187093,0.361426 0.592384,0.552049 0.988812,0.465074 l 1.842184,-0.471208 c 0.376785,-0.0971 0.870684,0.08177 1.097774,0.398635 l 0.980664,1.20204 c 0.26579,0.285178 0.361509,0.814646 0.212839,1.174441 l -0.74645,1.806127 c -0.141446,0.386262 -0.02038,0.820031 0.300412,1.076313 l 0.90327,0.60511 c 0.353902,0.19933 0.79672,0.137923 1.083518,-0.150257 l 1.303479,-1.403401 c 0.264764,-0.285177 0.776996,-0.404768 1.139527,-0.265752 l 1.608983,0.489606 c 0.378823,0.08892 0.74339,0.476317 0.813656,0.860642 l 0.34216,1.901184 c 0.08939,0.401211 0.423681,0.700559 0.83097,0.744119 0,0 0.114053,0.0083 0.531575,0.0083 z m -0.0021,-12.603011 c -0.135086,-4.96e-4 -0.269804,-0.01419 -0.402246,-0.04089 l -0.03772,-0.0072 c -0.12227,-0.02662 -0.2419,-0.06425 -0.357437,-0.112436 -0.0068,-0.0027 -0.01357,-0.0055 -0.02033,-0.0083 -0.11741,-0.05084 -0.229903,-0.112426 -0.336053,-0.183985 l -0.004,-9.95e-4 c -0.0048,-0.0034 -0.0095,-0.0068 -0.01425,-0.01029 -0.105395,-0.07253 -0.203911,-0.154644 -0.294302,-0.245308 -0.0027,-0.002 -0.0055,-0.0041 -0.0082,-0.0061 -0.08967,-0.09114 -0.170802,-0.190365 -0.242367,-0.29642 -0.0027,-0.0034 -0.0055,-0.0069 -0.0082,-0.01029 l -0.0061,-0.0093 c -0.07129,-0.106547 -0.132655,-0.219461 -0.183305,-0.337311 -0.0028,-0.0061 -0.0055,-0.01219 -0.0082,-0.01831 -0.05037,-0.123117 -0.08891,-0.250784 -0.115078,-0.381259 -0.02875,-0.138524 -0.04341,-0.279622 -0.04375,-0.421121 3.38e-4,-0.141499 0.015,-0.282598 0.04375,-0.421123 0.02598,-0.125854 0.06348,-0.249034 0.112017,-0.367971 l 0.01527,-0.03887 c 0.0014,-0.0028 0.0027,-0.0055 0.0041,-0.0083 0.05033,-0.11566 0.111001,-0.226504 0.181264,-0.331173 0.07476,-0.111201 0.16002,-0.214916 0.254594,-0.309709 0.09062,-0.09142 0.189486,-0.174229 0.295322,-0.247355 0.0067,-0.0048 0.01352,-0.0096 0.02033,-0.01429 0.107447,-0.07178 0.221312,-0.133372 0.340125,-0.183982 0.0027,-0.001 0.0055,-0.0021 0.0082,-0.0031 l 0.0061,-0.002 c 0.12164,-0.05072 0.247802,-0.08974 0.376789,-0.116529 0,0 0.0031,-0.002 0.0031,-0.002 h 0.0082 c 0.135679,-0.02838 0.273843,-0.04308 0.412435,-0.0439 0.13825,8.83e-4 0.276068,0.01559 0.411413,0.0439 0.0027,-5e-6 0.0055,-5e-6 0.0082,0 l 0.0071,0.002 c 0.127601,0.02704 0.252387,0.06605 0.372714,0.116529 l 0.02033,0.0072 c 0.120045,0.05175 0.234971,0.114722 0.343254,0.188094 0.109281,0.0746 0.211236,0.159481 0.304482,0.253488 l 0.0082,0.0061 c 0.09134,0.09258 0.173854,0.193528 0.24646,0.301533 l 0.0061,0.0083 c 0.0729,0.109681 0.1353,0.226043 0.186354,0.347528 l 0.0041,0.0072 c 6.7e-4,0.002 0.0013,0.0041 0.002,0.0061 0.05053,0.122093 0.0894,0.248724 0.116087,0.37819 0,0.0031 0,0.0061 0.002,0.01029 0.02828,0.136189 0.04293,0.274871 0.04374,0.413983 -2.9e-4,0.138356 -0.01427,0.276341 -0.04174,0.411923 l -0.0041,0.01743 c -0.02734,0.129537 -0.0669,0.256172 -0.11812,0.378195 l -0.0031,0.01029 c -0.05048,0.118905 -0.111846,0.232851 -0.183305,0.340373 -6.65e-4,0.0014 -0.0013,0.0027 -0.002,0.0041 l -0.01217,0.01429 c -0.06995,0.103316 -0.148992,0.200127 -0.236174,0.28927 l -0.02241,0.02144 c -0.09076,0.09036 -0.189617,0.172128 -0.295322,0.24428 -0.109194,0.07388 -0.225127,0.137197 -0.346239,0.189093 -0.0027,0.0014 -0.0055,0.0027 -0.0082,0.0041 l -0.0041,0.0021 c -0.002,6.7e-4 -0.0041,0.0013 -0.0061,0.002 -0.118425,0.04941 -0.241147,0.08774 -0.366599,0.114477 l -0.03062,0.005 c -0.132442,0.0267 -0.26716,0.04039 -0.402246,0.04089 z"
           id="path1227"
           style="fill:#666666"
           class="foreground" />
      </g>
    </g>
  </g>
  <g
     inkscape:groupmode="layer"
     id="layer5"
     inkscape:label="developpement"
     style="display:none">
    <g
       inkscape:groupmode="layer"
       id="layer8"
       inkscape:label="dev-source"
       style="display:none">
      <rect
         id="fond-carre-36"
         width="30"
         height="30"
         x="5"
         y="5"
         rx="3.0000002"
         ry="3.0000005"
         style="display:inline;fill:#e6e6e6;stroke-width:0.999994" />
      <path
         d="M 39.870256,9.4756674 37.648848,7.3802017 C 37.559988,7.2963825 37.384809,7.2150866 37.298447,7.2176038 l -0.518018,0.015157 -0.01512,-0.5180286 c -0.0049,-0.1727085 -0.09388,-0.2565247 -0.18274,-0.3403484 L 32.139774,2.1834455 C 31.251209,1.3452592 29.740658,-0.07965823 26.891546,0.00348295 23.956099,0.08914347 22.701359,1.5083438 21.779368,2.4857763 c -0.167634,0.1777151 -0.160078,0.4367293 -0.0687,0.6068858 0.09138,0.1701571 0.269083,0.337794 0.528097,0.3302355 4.316838,-0.125971 4.890284,1.75835 4.930594,3.1397591 0.05038,1.7267621 -1.298248,2.8894683 -1.298248,2.8894683 L 14.718368,21.135489 c -0.502904,0.533145 -0.741759,1.231408 -0.716566,2.094789 0.04534,1.554085 1.291854,2.813885 2.845914,2.768535 0.777031,-0.02268 1.543984,-0.390704 2.044368,-1.010185 L 29.25016,12.723572 c 1.43497,-1.165225 2.798721,-1.809903 3.316744,-1.82502 l 0.02264,0.777044 c 0.005,0.172674 0.0939,0.25649 0.182766,0.340313 l 2.757075,2.684717 c 0.08886,0.08383 0.264034,0.16512 0.350381,0.162595 0.172687,-0.005 0.256479,-0.0939 0.340309,-0.18275 l 3.586534,-4.425242 c 0.251452,-0.2665702 0.241361,-0.611924 0.06368,-0.7795616 z"
         class="foreground"
         id="path1017"
         style="display:inline;fill:#666666;stroke:none;stroke-width:1.05833;stroke-miterlimit:4;stroke-dasharray:none;stroke-opacity:1;paint-order:markers stroke fill"
         sodipodi:nodetypes="ccscsccsssssccsscccsccsccc" />
    </g>
    <g
       inkscape:groupmode="layer"
       id="layer15"
       inkscape:label="dev-final"
       style="display:inline">
      <g
         id="g1272">
        <path
           id="fond-carre-36-6"
           style="fill:#e6e6e6"
           d="M 8,5 C 6.3379999,5 5,6.3379999 5,8 v 24 c 0,1.662 1.3379999,3 3,3 h 24 c 1.662,0 3,-1.338 3,-3 V 16.691406 c -0.04168,-0.02198 -0.09314,-0.04228 -0.136719,-0.0625 -0.227001,-0.10534 -0.420148,-0.202013 -0.707031,-0.472656 l -0.01172,-0.01172 -2.61914,-2.550781 c -0.299405,0.190576 -0.5761,0.346876 -0.910157,0.611328 L 20.447266,26.246094 c -0.884796,1.095386 -2.17165,1.711983 -3.541016,1.751953 -2.664718,0.07776 -4.828717,-2.118305 -4.904297,-4.708985 -0.03686,-1.263203 0.377607,-2.588114 1.261719,-3.52539 l 0.0039,-0.0039 L 24.492188,8 24.564453,7.9375 c 0,0 0.624742,-0.6558306 0.605469,-1.3164062 C 25.157059,6.1802787 25.118886,6.0502553 24.958984,5.9042969 24.799082,5.7583385 24.162081,5.367446 22.296875,5.421875 21.736413,5.4382303 21.24733,5.2597675 20.851562,5 Z m 20.910156,0 c 0.168235,0.5543418 0.24565,1.0871048 0.257813,1.5039062 0.0726,2.4884169 -1.491839,4.0114118 -1.84961,4.3300778 L 16.173828,22.507812 C 16.05213,22.636826 15.98647,22.708316 16,23.171875 16.0151,23.689366 16.34566,24.012939 16.789062,24 c 0.184698,-0.0054 0.4309,-0.124006 0.546876,-0.267578 l 0.01367,-0.01758 10.494141,-12.425782 0.146484,-0.117187 c 0.818054,-0.664276 1.611756,-1.1825494 2.328125,-1.5605469 0.716369,-0.3779974 1.152987,-0.6826446 2.189453,-0.7128906 l 2,-0.056641 0.0625,2.1328125 L 35,11.392578 V 9.2871094 l -0.160156,0.00391 -0.05469,-1.8632812 -2.548828,-2.4042969 C 32.156905,5.0171861 32.081083,5 32,5 Z"
           class="background" />
        <path
           d="M 39.870256,9.4756674 37.648848,7.3802017 C 37.559988,7.2963825 37.384809,7.2150866 37.298447,7.2176038 l -0.518018,0.015157 -0.01512,-0.5180286 c -0.0049,-0.1727085 -0.09388,-0.2565247 -0.18274,-0.3403484 L 32.139774,2.1834455 C 31.251209,1.3452592 29.740658,-0.07965823 26.891546,0.00348295 23.956099,0.08914347 22.701359,1.5083438 21.779368,2.4857763 c -0.167634,0.1777151 -0.160078,0.4367293 -0.0687,0.6068858 0.09138,0.1701571 0.269083,0.337794 0.528097,0.3302355 4.316838,-0.125971 4.890284,1.75835 4.930594,3.1397591 0.05038,1.7267621 -1.298248,2.8894683 -1.298248,2.8894683 L 14.718368,21.135489 c -0.502904,0.533145 -0.741759,1.231408 -0.716566,2.094789 0.04534,1.554085 1.291854,2.813885 2.845914,2.768535 0.777031,-0.02268 1.543984,-0.390704 2.044368,-1.010185 L 29.25016,12.723572 c 1.43497,-1.165225 2.798721,-1.809903 3.316744,-1.82502 l 0.02264,0.777044 c 0.005,0.172674 0.0939,0.25649 0.182766,0.340313 l 2.757075,2.684717 c 0.08886,0.08383 0.264034,0.16512 0.350381,0.162595 0.172687,-0.005 0.256479,-0.0939 0.340309,-0.18275 l 3.586534,-4.425242 c 0.251452,-0.2665702 0.241361,-0.611924 0.06368,-0.7795616 z"
           id="path1265"
           style="fill:#666666"
           class="foreground" />
      </g>
    </g>
  </g>
  <g
     inkscape:groupmode="layer"
     id="layer13"
     inkscape:label="ASSETS"
     style="display:none">
    <rect
       id="fond-carre"
       width="30"
       height="30"
       x="5"
       y="5"
       rx="3"
       ry="3"
       style="fill:#e6e6e6" />
    <path
       style="display:inline;fill:none;fill-rule:evenodd;stroke:#666666;stroke-width:2;stroke-linecap:round;stroke-linejoin:round;stroke-miterlimit:4;stroke-dasharray:none;stroke-opacity:1"
       d="M 31,9 H 44"
       id="path1056-2-2"
       sodipodi:nodetypes="cc" />
    <path
       style="display:inline;fill:none;fill-rule:evenodd;stroke:#666666;stroke-width:5;stroke-linecap:round;stroke-linejoin:round;stroke-miterlimit:4;stroke-dasharray:none;stroke-opacity:1"
       d="m 32.5,13.5 h 10"
       id="path8686"
       sodipodi:nodetypes="cc" />
    <text
       xml:space="preserve"
       style="font-style:normal;font-weight:normal;font-size:2px;line-height:125%;font-family:sans-serif;letter-spacing:0px;word-spacing:0px;fill:#000000;fill-opacity:1;stroke:none;stroke-width:1px;stroke-linecap:butt;stroke-linejoin:miter;stroke-opacity:1"
       x="47"
       y="10"
       id="text998"><tspan
         sodipodi:role="line"
         id="tspan996"
         x="47"
         y="10"
         style="font-size:2px">2 = cutout autour objets</tspan></text>
    <text
       xml:space="preserve"
       style="font-style:normal;font-weight:normal;font-size:2px;line-height:125%;font-family:sans-serif;letter-spacing:0px;word-spacing:0px;fill:#000000;fill-opacity:1;stroke:none;stroke-width:1px;stroke-linecap:butt;stroke-linejoin:miter;stroke-opacity:1"
       x="47"
       y="14"
       id="text1002"><tspan
         sodipodi:role="line"
         id="tspan1000"
         x="47"
         y="14"
         style="font-size:2px">5 = objets en traits</tspan></text>
  </g>
  <g
     inkscape:groupmode="layer"
     id="layer24"
     inkscape:label="REPRES"
     style="display:inline"
     sodipodi:insensitive="true">
    <rect
       id="fond-carre-3"
       width="29.799999"
       height="29.799999"
       x="5.0999999"
       y="5.0999999"
       rx="2.9800003"
       ry="2.9800003"
       style="display:inline;fill:none;stroke:#00ff00;stroke-width:0.2;stroke-miterlimit:4;stroke-dasharray:none;stroke-opacity:0.33" />
  </g>
  <g
     inkscape:groupmode="layer"
     id="layer17"
     inkscape:label="README"
     style="display:none" />
</svg>
