<svg xmlns="http://www.w3.org/2000/svg" width="40" height="40" viewBox="0 0 40 40"><path d="M12 15a2.993 2.993 0 0 0-3 3.002v1.995h1.829l3.175 3.175 3.167-3.175h10.828a.956.956 0 0 0 1.006-.994v-4.006zm20.996 0v4.003a5.027 5.027 0 0 1-4.997 4.993h-9.165l-4.83 4.83-4.838-4.83H9V29c0 1.663 1.338 3 3 3h10.001L26 36l4.003-4h4.996C36.662 32 38 30.664 38 29V18.002A2.993 2.993 0 0 0 34.999 15z" class="background" fill="#e6e6e6"/><path class="foreground" d="M5.001 21.997h5L14 26.003l4.003-4.006h9.996c1.663 0 3.001-1.335 3.001-2.998V8.001A2.993 2.993 0 0 0 28 5H5A2.993 2.993 0 0 0 2 8.001v10.998C2 20.662 3.338 22 5.001 22z" fill="#666"/></svg>