<svg xmlns="http://www.w3.org/2000/svg" viewBox="0 0 64 64" width="64" height="64">
  <path d="M2.5 8.4c0-1.6 1.3-2.9 2.9-2.9h53.2c1.6 0 2.9 1.3 2.9 2.9v47.3c0 1.6-1.3 2.9-2.9 2.9H5.4c-1.6 0-2.9-1.3-2.9-2.9V8.4zm5.9 2.9v41.3h47.3V11.3H8.4z" fill="#888"/>
  <path fill="#fff" d="M8.4 11.3h47.3v41.3H8.4z"/>
  <path d="M21.3 43.3c1.1-3 4.3-4.5 7.2-3.4 1.7.6 2.8 1.9 3.4 3.4h19.3v3.8H31.9c-1.1 3-4.3 4.5-7.2 3.4-1.7-.6-2.8-1.9-3.4-3.4h-7.9v-3.8h7.9zm11.3-13.2c1.1-3 4.3-4.5 7.2-3.4 1.7.6 2.8 1.9 3.4 3.4h7.9v3.8h-7.9c-1.1 3-4.3 4.5-7.2 3.4-1.7-.6-2.8-1.9-3.4-3.4H13.3v-3.8h19.3zM21.3 16.8c1.1-3 4.3-4.5 7.2-3.4 1.7.6 2.8 1.9 3.4 3.4h19.3v3.8H31.9c-1.1 3-4.3 4.5-7.2 3.4-1.7-.6-2.8-1.9-3.4-3.4h-7.9v-3.8h7.9zm5.3 3.8c1.1 0 1.9-.8 1.9-1.9s-.8-1.9-1.9-1.9-1.9.8-1.9 1.9c0 1.1.8 1.9 1.9 1.9zm11.3 13.2c1.1 0 1.9-.8 1.9-1.9 0-1.1-.8-1.9-1.9-1.9s-1.9.8-1.9 1.9c.1 1.1.9 1.9 1.9 1.9zM26.6 47.1c1.1 0 1.9-.8 1.9-1.9s-.8-1.9-1.9-1.9-1.9.8-1.9 1.9.8 1.9 1.9 1.9z" fill="#666"/>
</svg>