<svg xmlns="http://www.w3.org/2000/svg" viewBox="0 0 64 64"  width="64" height="64">
  <path fill="#fff" d="M25.3 14.6h5.4v26.8h-5.4z"/>
  <circle fill="#fff" cx="49.5" cy="48.1" r="4.3"/>
  <path fill="#888" d="M34.1 46c.3-7.8 6.7-14.1 14.6-14.1.8 0 1.6.1 2.4.2v-16L38.6 3.7H8.5C7.1 3.7 6 4.8 6 6.2v45.1c0 1.4 1.1 2.5 2.5 2.5h25.6V46zM31 41.2h-5v-15h5v15zm-5-20v-5h5v5h-5z" />
  <path fill="#1d83d4" d="M39.7 50.3c-.4-1.5-.4-3.1 0-4.6l-2.8-1.6 2.8-4.9 2.8 1.6c1.1-1.1 2.5-1.9 4-2.3v-3.3h5.7v3.3c1.5.5 2.9 1.3 4 2.3l2.8-1.6 2.8 4.9-2.8 1.6c.4 1.5.4 3.1 0 4.6l2.8 1.6-2.8 5-2.8-1.6c-1.1 1.1-2.5 1.9-4 2.3v3.3h-5.7v-3.3c-1.5-.4-2.9-1.2-4-2.3l-2.8 1.6-2.8-4.9 2.8-1.7zm9.7 2c2.4.1 4.3-1.8 4.4-4.1.1-2.4-1.8-4.3-4.1-4.4h-.3c-2.4.1-4.2 2.1-4.1 4.4 0 2.2 1.8 4 4.1 4.1z"  />
</svg>