<svg xmlns="http://www.w3.org/2000/svg" viewBox="0 0 64 64" width="64" height="64">
  <path fill="#666"  d="M24.9 48.2c-3.4 0-6.3 3-6.2 6.5.1 1.5.6 3 1.6 4 .5.5.7 1.2.7 1.9v1.3l-17.2-.2c-1.1 0-2-.9-2-2L2 42.4h1.3c.7 0 1.4.3 2 .8 1.1 1 2.5 1.6 4.1 1.7h.8c.2 0 .3 0 .5-.1.1 0 .2 0 .2-.1.2 0 .2-.1.4-.1.1 0 .2-.1.2-.1l.4-.2c.1 0 .2-.1.2-.1.1-.1.2-.1.3-.2.1 0 .2-.1.2-.1.1-.1.2-.2.3-.2.1-.1.2-.1.2-.2.1-.1.2-.2.3-.2l.2-.2.2-.2c.1-.1.1-.2.2-.2.1-.1.2-.2.2-.3.1-.1.1-.2.2-.2.1-.1.2-.2.2-.3.1-.1.1-.2.2-.2.1-.1.2-.2.2-.3 0-.1.1-.2.1-.2.1-.1.1-.2.2-.3 0-.1.1-.2.1-.2 0-.1.1-.2.2-.3 0-.1 0-.2.1-.2 0-.1.1-.2.1-.3v-.2-.4-.3-.7-.3c0-.2-.1-.2-.1-.4v-.2c0-.2-.1-.3-.2-.5v-.1c-.1-.2-.2-.4-.2-.6-.5-1.3-1.6-2.4-2.8-3.1h-.1c-.1-.1-.3-.1-.4-.2 0 0-.1 0-.2-.1l-.4-.2c-.1 0-.2-.1-.2-.1-.1 0-.2-.1-.3-.1-.1 0-.2-.1-.2-.1h-2s-.2 0-.3.1c-.1 0-.2 0-.2.1-.1 0-.2.1-.3.1-.1 0-.2.1-.2.1-.1 0-.2.1-.2.1-.1 0-.2.1-.2.1-.1 0-.2.1-.2.1-.1 0-.2.1-.2.2-.1.1-.2.1-.2.2-.1.1-.2.1-.2.2-.1.1-.2.1-.2.2-.1.1-.2.1-.2.2l-.2.2c-.6.5-1.3.8-2 .8H2.6l.2-17.3c0-1.1.9-2 2-2l17.4.2v-1.3c0-.7-.2-1.4-.7-1.9-.9-1.1-1.6-2.5-1.6-4-.1-3.4 2.7-6.5 6.2-6.5 3.6 0 6.5 2.9 6.4 6.4 0 1.6-.6 3-1.7 4.1-.5.6-.8 1.2-.8 2V16l17.2.2c1.1 0 2 .9 2 2L49 35.4h1.3c.7 0 1.4-.2 1.9-.7 1.1-.9 2.5-1.6 4-1.6 3.4-.1 6.5 2.7 6.5 6.2 0 3.6-2.9 6.5-6.4 6.4-1.6 0-3-.6-4.1-1.7-.6-.5-1.2-.8-2-.8h-1.3l-.2 17.3c0 1.1-.9 2-2 2L28.9 62v-1.3c0-.7.3-1.4.8-2 1-1.1 1.6-2.5 1.7-4.1 0-3.5-2.9-6.5-6.5-6.4z"/>
</svg>