<svg viewBox="0 0 64 64"
		 width="64"
		 height="64"
		 xmlns="http://www.w3.org/2000/svg">
  <rect x="2" y="4.5" width="60" height="55" rx="2.5" fill="#fff"/>
  <g fill="#444">
    <path d="M54.5 16.88H21.82a4.98 4.98 0 00-9.64 0H9.5a1.25 1.25 0 000 2.5h2.68a4.98 4.98 0 009.64 0H54.5a1.25 1.25 0 000-2.5zM17 20.63a2.5 2.5 0 112.5-2.5 2.5 2.5 0 01-2.5 2.5zM54.5 30.63h-2.68a4.98 4.98 0 00-9.64 0H9.5a1.25 1.25 0 000 2.5h32.68a4.98 4.98 0 009.64 0h2.68a1.25 1.25 0 000-2.5zM47 34.38a2.5 2.5 0 112.5-2.5 2.5 2.5 0 01-2.5 2.5zM54.5 44.38H21.82a4.98 4.98 0 00-9.64 0H9.5a1.25 1.25 0 000 2.5h2.68a4.98 4.98 0 009.64 0H54.5a1.25 1.25 0 000-2.5zM17 48.12a2.5 2.5 0 112.5-2.5 2.5 2.5 0 01-2.5 2.5z"/>
    <path stroke="#444" d="M59.5 3.13h-55A3.75 3.75 0 00.75 6.88v50a3.75 3.75 0 003.75 3.74h55a3.75 3.75 0 003.75-3.74v-50a3.75 3.75 0 00-3.75-3.75zm1.25 53.74a1.25 1.25 0 01-1.25 1.26h-55a1.25 1.25 0 01-1.25-1.26v-50A1.25 1.25 0 014.5 5.63h55a1.25 1.25 0 011.25 1.25z" stroke-width="1.25"/>
  </g>
</svg>
