<svg xmlns="http://www.w3.org/2000/svg" viewBox="0 0 64 64" width="64" height="64">
  <circle fill="#fff" cx="18.7" cy="43.3" r="5.4"/>
  <circle fill="#fff" cx="45.3" cy="43.3" r="5.4"/>
  <path fill="#666" d="M45.3 32.7c5.9 0 10.7 4.8 10.7 10.7S51.2 54 45.3 54s-10.7-4.8-10.7-10.7h-5.3c0 5.9-4.8 10.7-10.7 10.7C12.8 54 8 49.2 8 43.3s4.8-10.7 10.7-10.7c3.8 0 7.3 2 9.2 5.3h8.2c1.9-3.2 5.4-5.2 9.2-5.2zM18.7 38c-2.9 0-5.3 2.4-5.3 5.3s2.4 5.3 5.3 5.3 5.3-2.4 5.3-5.3-2.4-5.3-5.3-5.3zm26.6 0c-2.9 0-5.3 2.4-5.3 5.3s2.4 5.3 5.3 5.3 5.3-2.4 5.3-5.3c.1-2.9-2.3-5.3-5.3-5.3z"/>
  <path fill="#888" d="M5.3 30v-5.3h5.3v-8C10.7 10.8 15.4 6 21.3 6h21.3c5.9 0 10.7 4.8 10.7 10.7v8h5.3V30H5.3z" />
</svg>