<svg xmlns="http://www.w3.org/2000/svg" height="64" viewBox="0 0 64 64" width="64"><path d="M54 45.41c0-.979-.349-1.817-1.048-2.516L42.058 32l10.894-10.895C53.651 20.406 54 19.568 54 18.59c0-.977-.35-1.815-1.048-2.513l-5.027-5.028c-.698-.698-1.536-1.047-2.514-1.047-.977 0-1.816.348-2.515 1.047L32.002 21.943 21.106 11.048C20.408 10.349 19.569 10 18.59 10c-.978 0-1.815.35-2.513 1.048l-5.03 5.029c-.698.698-1.046 1.535-1.047 2.513 0 .978.35 1.815 1.048 2.514L21.944 32 11.048 42.895C10.35 43.593 10 44.432 10 45.409c0 .978.35 1.815 1.048 2.514l5.029 5.029c.699.699 1.536 1.047 2.514 1.048.978 0 1.815-.35 2.514-1.048l10.896-10.896 10.895 10.895c.699.699 1.537 1.048 2.514 1.048.977 0 1.815-.35 2.513-1.047l5.03-5.03C53.65 47.224 54 46.387 54 45.41z" fill="#d85305"/></svg>