<svg class="logo_spip" viewBox="0 -1 200 154" xmlns="http://www.w3.org/2000/svg" width="60" height="40">
  <path class="letter_s" d="M85.9 108c-6.2-24.8-32-22.2-36.1-38.9-2.9-11.8 5-20.8 16.8-23.8A22.1 22.1 0 0188.4 52l.1.1.5.6.3.4.3.5.1.1c1.1 1.4 1.7 2.4 2.6 2.2.8-.2 1.2-2 1.4-3.3a46.9 46.9 0 00-58-51.4A47.4 47.4 0 001.4 58.3c8.3 33.9 40.2 39.6 57.5 48.2a14 14 0 01-2.7 26.3H56l-.7.2c-1.5.4-1.9.2-1.9.8 0 .4 1 .9 1.6 1.2a23 23 0 0030.9-27z" fill="currentColor"/>
  <path class="letter_p letter_p1" d="M132.6 116.6c3.9-19.2-12.6-19.2-18.7-18.3l-1.6.3c-5 .8-5.7 1-6.8.6a3 3 0 01-.8-.4l-.7-.5c-1.6-.9-3.5-.7-3.5-.7h-.3.1c-1.2 0-2.5 1-2.7 2.2l-15.5 49.8s-1 2.8 2 2.8h.9s7.9.7 11.9-10.7l10.6-34.8h4c9.2-.2 10.4 10.9 5.4 18.5-2.9 4.4-5.7 5.5-8.7 6.7l-2.5.8s-2.6.5-2.6 1.4c0 .7.9 1.2 2 1.5 1.4.2 3 .4 4.7.4 7.6 0 20.7-5.6 22.8-19.4.1-.6-.1.5 0-.2" fill="currentColor"/>
  <path class="letter_i" d="M154 97.8h-1.7c-2.5 0-4.2.7-5.4 1.4l-.3.2c-2 1.3-2.8 3.6-2.8 3.6l-10 32c-.3 1.2.5 2.2 1.8 2.2h6.6c1.2 0 2.5-1 2.7-2.2l10.9-35c.2-1.3-.6-2.2-1.8-2.2" fill="currentColor"/>
  <path class="letter_i letter_i_dot" d="M148 94h7.3c2.1-.2 3.2-2.5 3.1-3.6 0-1.1-1.1-2-3.4-2-2.3.1-7 1.4-7.2 5.2l.2.4" fill="currentColor"/>
  <path class="letter_p letter_p2" d="M199.4 116.6c3.9-19.2-12.6-19.2-18.7-18.3l-1.6.3c-5 .8-5.7 1-6.8.6a3 3 0 01-.8-.4l-.7-.5c-1.6-.9-3.5-.7-3.5-.7h-.3.1c-1.2 0-2.5 1-2.7 2.2l-15.5 49.8s-1 2.8 2 2.8h.9s7.9.7 11.9-10.7l9.6-31.7c-1.6-.5-2.6-1-3.5-1.6-2-1.4-2.1-2.8-.6-2.3 1.4.5 3.1.9 9.2.8 9.2-.2 10.4 10.9 5.4 18.5-2.9 4.4-5.7 5.5-8.7 6.7l-2.5.8s-2.6.5-2.6 1.4c0 .7.9 1.2 2 1.5 1.4.2 3 .4 4.7.4 7.6 0 20.7-5.6 22.8-19.4 0-.6-.2.5-.1-.2" fill="currentColor"/>
</svg>
